<?xml version="1.0" encoding="UTF-8"?>
<svg enable-background="new 0 0 2672.179 1643.482" version="1.1" viewBox="0 0 2672.179 1643.482" xmlns="http://www.w3.org/2000/svg">
 <path d="m782.99 250.24c-0.467-1.281-0.349-2.562-0.933-3.728-2.446-5.008-7.338-5.708-9.785-10.717-2.097-4.194-3.262-6.641-4.194-11.184-0.58-2.796 0.119-5.476-1.863-7.455-1.979-1.981-4.543-0.931-7.456-0.931-8.037 0-12.463-1.515-20.502-0.933-1.398 0.116-2.33 0.466-3.728 0.466-1.631 0-3.146-1.748-4.193-0.466-0.817 1.048-0.118 2.446 0 3.729 0.699 4.775 6.523 5.824 6.523 10.717h-1e-3c0 2.33-1.05 3.495-1.864 5.592l3.727 2.795c-0.466 0.584-0.348 1.515-0.931 1.864-2.097 1.283-3.495 2.33-5.592 3.728-0.583 0.351-1.397 0.118-1.863 0.467-2.796 2.563-2.33 5.708-3.729 9.318v3.262c1.398 0.118 2.213 0.467 3.611 0.467 2.33 0 3.612-1.048 5.709-1.864l1.864 0.466c-0.349 2.33-1.398 3.495-2.33 5.592-0.816 1.981-0.466 3.494-0.932 5.592-0.932 3.845-2.33 5.708-3.727 9.319-1.165 2.795-0.932 4.892-2.796 7.455-1.981 2.796-4.079 3.728-6.058 6.523 1.398 0.816 2.796 0.699 3.727 1.864 1.047 1.398 0.466 2.796 0.466 4.659 0 3.379-1.282 5.243-2.329 8.388-1.515 4.659-3.029 7.687-6.524 11.183-3.261 3.262-6.29 3.728-8.853 7.456-1.864 2.68-2.448 4.777-4.194 7.455-1.981 2.913-4.427 3.728-7.455 5.592l-7.455 4.659c-1.981 1.165-3.146 3.262-5.592 3.262-2.448 0-3.379-2.097-5.592-2.796-4.311-1.398-7.222-1.513-11.183-3.727l-0.466 1.864 0.933 3.727c-0.583 3.612 1.397 6.757-0.933 9.319-0.816 0.932-2.447 0.583-3.728 0.932-2.796 0.817-4.427 2.096-7.455 2.33-1.515 0.117-2.33-0.466-3.845-0.466h-10.95c-2.212 0-3.494 0.932-5.708 0.932s-2.795-2.33-3.726-4.193c-1.632-3.145-3.029-4.893-5.593-7.455-1.863-1.864-3.261-3.029-5.591-4.194-0.817-0.349-0.933-1.397-1.864-1.397-3.262 0-4.659 2.447-7.455 4.193-4.079 2.448-6.523 4.193-11.183 5.126-3.844 0.698-5.708 2.329-9.318 3.727-2.215 0.816-3.729 0.699-6.059 1.398-1.515 0.351-2.214 1.397-3.845 1.397h-19.452c2.563 0.583 4.077 0.583 6.523 0.933 3.843 0.699 5.825 2.33 9.785 2.33 5.94 0 9.435-0.933 15.377-1.398v4.777c0 1.398-0.816 2.33-0.931 3.611-0.118 1.282 0.348 2.68-0.467 3.728-0.931 1.165-2.329 0.933-3.726 1.397-2.914 0.933-4.66 1.398-7.456 2.796-3.495 1.749-5.709 2.563-9.319 4.194-2.447 1.049-5.125 1.981-5.125 4.659 0 1.864 1.047 3.379 2.795 3.729 1.281 0.232 2.446 0.117 3.729 0.466 2.212 0.698 3.377 1.981 5.591 2.795 4.309 1.515 6.639 3.146 11.183 4.194 0-4.775 0.932-7.455 1.863-12.115 0.349-2.098-0.117-3.495 0.466-5.592 0.583-1.98 2.098-2.446 3.729-3.728 0.699-0.466 0.581-1.631 1.397-1.863 0.581-0.234 1.281 0.698 1.864 0.465 2.912-1.164 2.796-4.426 3.262-7.455 0.348-2.562 1.397-4.193 3.262-6.058 1.047-1.047 2.097-2.33 3.728-2.33 2.912 0 4.542 1.398 7.456 1.398 1.398 0 2.445-0.466 3.728-0.933 0 0.817 0.466 1.165 0.466 1.982 0 5.008-0.817 7.921-1.398 12.93 1.048 0.117 1.631 0.465 2.679 0.465 3.145 0 4.544-1.863 7.573-2.329 6.406-1.048 10.367 0.117 16.774-0.932 3.96-0.582 6.057-2.797 10.133-3.263v7.456c0.933 0 1.398 0.466 2.33 0.466 3.728 0 5.709-2.33 9.437-2.33 2.33 0 4.309 0.118 5.592 1.864 3.028 3.961 0.932 7.921 0.932 13.047v5.592c0 1.398 0.581 2.563 0 3.727-1.049 2.097-3.845 1.749-5.126 3.728-0.699 1.049-0.35 2.447-0.466 3.727-0.233 1.399-0.931 2.33-1.398 3.728-1.048 3.029-3.028 4.311-3.726 7.456-0.234 1.282 0.466 2.329 0.466 3.728 0 3.262-4.194 4.193-4.194 7.455 0 1.515 1.746 1.981 2.33 3.262 1.514 3.147 0.932 5.71 0.932 9.319 0 3.961-2.329 5.71-3.727 9.319-1.631 3.961-2.214 7.456-6.058 9.319-4.311 2.097-6.989 3.961-9.785 7.921 0.815 0 1.047 0.933 1.864 0.933 1.047 0 0.932-1.513 1.863-1.863 1.98-0.815 3.611-0.699 5.592-1.398 1.747-0.581 2.212-1.864 3.728-2.796 3.843-2.33 7.338-1.513 11.183-3.728 4.309-2.446 4.427-6.523 6.989-10.717 2.097-3.495 4.66-5.708 4.66-9.902v-9.204c-0.467-0.698-1.864-0.466-1.864-1.398 0-5.358 2.097-8.502 5.592-12.581 2.795-3.377 2.911-6.639 6.058-9.785 3.494 6.058 4.193 10.135 6.056 16.774 1.165 4.079 3.263 6.408 3.263 10.718 3.727 0.232 7.222-0.116 9.319 2.795 1.279 1.749 0.58 3.495 0.931 5.592 0.466 2.796 1.047 4.66 1.863 7.456 1.514 5.358 3.379 8.271 6.059 13.047 1.979 3.494 2.678 5.824 4.659 9.319 2.445-11.532 8.387-17.124 8.387-28.89 0-2.446-0.932-4.194-2.796-5.592-1.398-1.047-3.146-0.815-4.193-2.33-2.097-3.028-1.165-6.058-2.796-9.319-1.631-3.377-4.426-4.309-6.523-7.455-2.214-3.377-3.146-5.941-4.659-9.785-0.817-2.097-1.049-3.495-1.864-5.592-0.698-1.631-2.33-2.213-3.262-3.728-2.215-3.377-3.728-5.592-5.125-9.319-1.05-2.911-0.933-5.008-1.864-7.922-1.049-3.611-3.262-5.592-3.262-9.435v-3.612c4.427-1.047 8.387 0.118 11.182-3.262 2.797-3.377 0.699-7.921 3.728-11.183 3.029-3.263 7.922-1.632 10.718-5.126 1.513-1.98 2.563-3.728 4.193-5.592 1.632-1.746 2.679-3.727 5.126-3.727 1.864 0 2.796 0.932 4.66 0.932 9.086 0 14.329-1.747 23.298-2.796 0.117-1.047 0.466-1.746 0.466-2.796 0-1.863-1.864-2.678-3.262-3.727-3.377-2.445-7.922-3.61-7.922-7.921 0-3.262 2.914-4.309 5.126-6.523 3.379-3.377 4.892-5.825 7.456-9.785 3.494-5.359 6.056-8.27 10.717-12.581 1.981-1.746 2.913-3.495 4.659-5.592 3.495-4.077 6.175-6.058 8.854-10.718 1.863-3.261 4.193-5.007 4.193-8.852 0-4.776-0.232-7.689-1.863-12.115-0.238-0.815-1.17-1.048-1.402-1.865z" fill="none"/>
 <path d="m2615.2 357.48v14.96c0.499-1.098 0.911-2.208 0.911-3.731v-9.552c-1e-3 -0.784-0.753-1.033-0.911-1.677z" fill="none"/>
 <path d="m1721.9 343.44c-0.698-1.281-1.979-1.864-3.262-2.796-2.911-2.097-4.541-4.193-7.921-5.592 0 0.699-0.466 1.165-0.466 1.863 0 1.864 1.631 2.33 2.796 3.729 2.795 3.262 4.426 5.591 6.523 9.319 2.447 4.311 3.612 7.223 6.523 11.184 1.048 1.397 2.213 1.863 3.728 2.795s1.981 2.214 3.728 2.796c2.68 0.933 5.126 0.118 7.455 1.864 2.448 1.749 2.796 4.31 2.796 7.455 0 2.448-1.513 3.613-2.796 5.592l0.466 1.863c3.263-1.631 4.66-4.659 8.388-4.659s5.243 2.796 8.388 4.659c2.329 1.398 4.427 1.632 6.058 3.728 3.028 3.845 4.31 8.853 9.318 8.853 1.398 0 2.33-1.397 2.33-2.795 0-3.378-0.932-5.359-2.33-8.388-1.746-3.843-3.61-6.523-7.455-8.388-8.854-4.427-15.377-5.592-21.434-13.513-2.797-3.611-4.194-6.639-8.388-8.388-3.495-1.513-5.824-1.746-9.319-3.262-2.563-1.047-4.427-2.446-5.126-5.126-0.232-0.93 0.468-1.977 0-2.793z" fill="#ED2939"/>
 <path d="m2115.2 334.58c-1.514-2.097-3.844-1.98-5.592-3.728-4.776-4.776-9.435-6.523-16.309-6.989-3.611-0.233-5.708-1.398-9.319-1.398-3.728 0-5.825 1.165-9.319 2.33-4.31 1.397-7.223 0.584-11.649 1.397-3.144 0.584-5.125 1.864-8.388 1.864-6.29 0-9.785-1.281-15.842-2.796-2.213-0.466-3.377-1.513-5.592-1.864-2.097-0.348-3.495 0.467-5.592 0-5.592-1.397-8.27-4.193-13.978-4.193-2.679 0-3.961 2.33-6.639 2.33h-11.417c-4.426 0-6.874-1.397-11.3-1.397l-46.595 6.523c-5.008-0.699-8.038-0.467-12.582-2.33-3.728-1.514-5.358-4.193-9.318-5.126-5.126-1.281-8.387 0.118-13.514-0.932-3.61-0.699-4.541-4.194-7.921-5.592-3.377-1.397-5.824-0.932-9.319-1.863-2.33-0.583-3.728-1.398-5.592-2.796-0.699-0.467-1.513-0.583-1.864-1.398-1.165-2.563-0.116-5.241-1.863-7.455-0.933-1.165-2.33-1.165-3.728-1.864-2.796-1.397-4.66-1.513-7.455-2.795-2.213-0.933-3.495-2.214-5.593-3.263-6.406-3.146-8.269-9.436-15.376-10.717-6.873-1.283-10.718-2.796-17.707-3.262-2.212-0.118-3.494 0.233-5.592-0.466-3.728-1.165-5.358-3.729-9.319-3.729-1.397 0-2.445 0.815-3.728 0.933-2.212 0.232-3.843-0.233-6.058 0.466-3.144 1.047-4.426 3.377-7.455 4.659-2.796 1.281-4.893 0.933-7.455 2.796-1.98 1.398-2.678 3.263-4.66 4.66-6.291 4.542-11.298 6.058-19.104 6.058 0.35 2.214 0 3.379 0 5.591 0 2.33 2.68 2.448 4.193 4.194 1.399 1.631 1.283 3.378 1.399 5.592 0.232 3.728 1.05 6.174 2.796 9.319 2.33 3.96 6.058 4.311 10.251 6.057 3.612 1.398 5.476 3.495 9.319 4.194 2.796 0.584 4.544 0.584 7.455 0.932 1.399 0.118 2.68-0.232 3.728 0.466 3.147 2.214 1.982 6.523 5.126 8.853 3.495 2.562 6.757 1.397 11.184 1.864 3.728 0.466 5.708 1.048 9.319 1.863 3.844 0.933 5.125 3.961 7.455 6.989 3.262 4.194 6.408 5.592 11.184 7.922 4.078 1.981 6.64 3.262 11.182 4.193 1.283 0.233 2.563 0.351 3.728 0.933 2.33 1.164 2.097 4.078 4.194 5.591 1.863 1.283 3.261 2.098 5.591 2.33 2.214 0.233 3.495-0.815 5.592-0.466 3.03 0.466 3.38 3.494 5.126 6.058 0.466 0.699 1.282 0.699 1.863 1.397 3.029 3.613 3.845 7.107 7.922 9.319 0.583 0.233 1.282 0.233 1.863 0.467 3.03 1.63 3.961 5.125 7.456 5.125 1.863 0 2.214-2.33 3.262-3.728 3.612 4.893 7.921 5.824 12.115 10.251 3.262 3.495 4.544 6.756 8.853 8.853 1.399 0.698 2.68 0.698 3.729 1.863 0.932 1.049 0.816 2.448 1.397 3.729 0.816 1.63 2.68 1.981 3.262 3.728 1.515 4.193 1.981 9.785 6.523 9.785 3.495 0 5.243-2.446 8.388-3.728 4.078-1.631 6.756-2.33 11.182-2.796 6.99-0.815 10.718-2.33 17.707-2.33 2.214 0 3.378 0.932 5.592 0.932 3.612 0 6.058-1.513 8.387-4.193 2.214-2.562 3.612-5.126 6.99-5.126 2.329 0 3.26 1.864 5.591 1.864 5.126 0 6.409-5.241 11.184-6.989 1.981-0.699 4.078 0 5.592-1.398 1.048-0.932 0.932-2.329 0.932-3.843v-6.29c0-1.165-1.165-2.098-0.466-2.914 1.981-2.097 4.659-1.165 7.455-2.329 2.214-0.815 3.379-2.564 5.592-3.263 1.283-0.348 2.447 0.233 3.728 0 2.33-0.581 3.379-2.563 5.592-3.262 3.728-1.165 6.29-0.466 10.251-0.466 6.875 0 10.834 1.049 17.707 1.398 5.125 0.232 7.921-0.815 13.047-0.467 3.262 0.233 5.125 1.398 8.387 1.398 5.709 0 8.388-3.728 14.096-3.728h14.794c0.232-0.815 0.583-1.514 0.932-2.33-2.212-1.631-3.377-3.028-5.592-4.66-0.466-0.348-1.513 0-1.863-0.466-0.349-0.465-0.233-1.28-0.467-1.863-1.746-3.377-2.329-5.708-2.329-9.553 0-7.687 3.728-11.648 3.728-19.337-4e-3 -2.209 0.695-3.839-0.47-5.588z" fill="#ED2939"/>
 <path d="m1393.9 159.38c-3.378-1.747-6.059-5.592-6.989-9.319-2.098-2.796-2.563-6.523-6.059-6.523-1.515 0-2.214 1.397-3.261 2.329 2.445 4.311 4.775 6.524 6.522 11.184 0.699 2.097 0.467 3.845 1.864 5.591 1.283 1.632 4.193 1.516 4.193 3.729 0 2.68-1.863 3.845-1.863 6.523 0 1.049-0.115 1.981 0.466 2.796 0.35 0.584 1.515 0.35 1.863 0.932 1.283 1.981 1.516 3.612 2.796 5.592 1.399 2.097 3.495 2.563 5.126 4.659 1.515 1.981 2.33 3.495 3.728 5.592 1.982 2.914 2.68 5.358 5.592 7.455 1.282 0.933 2.447 1.398 3.728 2.33 3.495 2.796 4.077 6.641 7.922 8.853 1.165-3.611 1.165-5.941 0.931-9.785-0.115-1.864-0.931-2.796-0.931-4.66 0-2.329 1.863-3.261 1.863-5.591 0-2.679-2.445-3.843-4.659-5.126-3.495-2.097-5.824-3.377-9.319-5.592-3.843-2.445-8.388-3.377-8.388-7.921 0-2.912 1.398-4.542 1.398-7.456 1e-3 -3.263-3.728-4.077-6.523-5.592z" fill="#ED2939"/>
 <path d="m1878 385.84c-1.748-1.746-3.611-2.33-5.592-3.728-1.98-1.398-3.377-4.309-4.66-6.523-2.097-1.515-3.028-3.728-5.708-3.728h-3.611c0 0.932-0.466 1.397-0.466 2.329 0 1.632 1.747 2.214 2.796 3.263 2.446 2.447 5.008 3.378 6.523 6.523 1.981 4.078 2.563 7.572 6.524 9.785 3.612 1.981 4.893 4.893 6.99 8.387 2.68 4.311 6.64 6.058 11.766 6.058h3.61c-0.814-3.377-3.028-4.659-5.125-7.455-4.66-6.058-7.688-9.553-13.047-14.911z" fill="#ED2939"/>
 <path d="m2615.2 357.41c-0.932-3.728-1.281-5.942-2.33-9.785-1.165-4.311-1.397-7.107-3.262-11.183-1.281-3.029-3.145-4.544-4.66-7.456-3.028-5.709-5.591-8.62-9.784-13.513-6.291-7.223-12.465-8.388-20.969-12.581-4.892-2.447-6.639-5.358-11.183-8.387-4.659-3.029-7.455-4.778-11.648-8.388-3.961-3.379-6.757-4.777-11.184-7.456-3.029-1.863-4.309-4.078-7.455-5.592-5.708-2.796-9.087-4.426-14.911-6.989-3.611-1.631-5.825-1.981-9.319-3.728-7.105-3.494-10.95-6.989-18.639-9.319-3.61-1.049-6.058-1.049-9.785-1.863-5.94-1.398-9.202-3.729-15.377-3.729-3.377 0-4.893 2.446-7.455 4.66-3.729 3.262-5.824 4.893-9.319 8.388-1.398 1.397-1.631 3.728-3.728 3.728-2.563 0-4.077-1.049-6.524-1.398-3.727-0.466-6.057-0.584-9.785-1.397-3.028-0.699-4.775-1.515-7.921-1.397-2.911 0.115-4.542 0.814-7.456 0.466-3.96-0.466-5.94-1.981-9.319-3.729-3.61-1.863-5.94-3.728-8.387-6.989-2.097 1.513-4.659 2.446-6.058 4.659-1.631 2.564-1.746 4.776-3.262 7.456-2.563 4.542-4.542 7.223-7.455 11.649-2.33 3.494-6.058 3.843-10.251 4.659-1.514 0.232-2.563 0.815-4.194 0.932-2.678 0.233-6.523-0.35-6.523 2.33 0 2.212 0.118 3.377 0 5.592-4.427 0-6.871-1.397-11.299-1.397-12.464 0-19.571-0.118-32.035-0.118-0.117 0.584-0.932 0.816-0.932 1.515 0 2.446 1.631 3.843 2.33 6.058 0.348 1.28 0.232 2.445 0.466 3.728 1.047 5.707 3.494 8.27 6.058 13.513 3.728 7.456 1.747 13.047 2.796 21.435 0.466 3.728 2.097 5.592 2.33 9.319 0.465 5.94 1.397 9.435 1.863 15.377 0.234 2.911-0.118 4.66 0.466 7.455 0.815 4.31 0.815 8.27 1.865 12.581h-1e-3c-3.845 2.796-5.824 5.126-9.319 8.388-1.749 1.631-3.728 2.68-3.728 5.125 0 5.593 5.008 8.039 9.785 10.718 2.097 1.165 3.379 2.563 5.592 3.262 4.193 1.397 7.222 0.118 11.182 1.863 1.631 0.699 1.865 2.563 3.262 3.729 2.563 2.214 5.244 2.68 7.455 5.125 2.214 2.448 2.914 4.66 4.66 7.456 1.863 3.146 3.612 4.659 6.058 7.455 3.262 3.728 4.545 6.408 7.921 9.785 5.126 5.126 7.456 8.853 11.184 14.911 4.078 6.523 7.688 9.552 10.251 16.774 2.097 5.942 3.728 9.552 5.126 15.843 0.232 1.283 0 2.448 0.466 3.728 0.816 2.33 2.68 3.379 3.728 5.592 1.398 2.796 1.864 4.545 2.796 7.456 5.824 3.844 10.369 6.523 15.377 11.183 2.447 2.214 4.311 3.728 7.455 5.126 2.214 0.932 3.495 2.214 5.592 3.262 0.817 0.35 0.932 1.397 1.863 1.397 4.079 0 6.291-1.746 9.786-3.728 2.913-1.631 5.358-1.864 7.921-4.193 3.495-3.145 3.845-6.757 6.523-10.718 1.864-2.796 4.079-3.96 6.99-5.592 3.028-1.746 5.125-2.911 7.455-5.591 2.563-3.029 4.427-5.94 8.388-6.524 4.193-0.698 6.989-0.232 11.183-0.931 3.028-0.467 4.777-1.864 7.921-2.33l62.439-13.048c0.583 0.118 1.283-0.232 1.864 0 1.631 0.933 1.749 2.796 3.262 3.729 1.515 0.932 2.796 0.932 4.659 0.932 3.613 0 5.01-3.029 8.387-4.194 2.796-1.046 5.243-0.348 7.455-2.329 3.495-3.145 3.845-6.639 5.126-11.184 3.38-11.764 5.01-18.987 8.387-30.753 1.05-3.611 0.933-6.058 1.398-9.785 1.05-7.456 2.447-11.533 3.262-19.105 0.699-6.989 2.214-10.832 3.262-17.706 0.351-2.098 0-3.495 0.466-5.592 0.348-1.449 0.926-2.523 1.419-3.61v-14.96c-8e-3 -0.027-0.019-0.047-0.023-0.072z" fill="#ED2939"/>
 <path d="m2381.2 664.01c-4.545-3.612-8.04-4.078-13.048-6.989-3.728-2.097-5.475-4.311-8.387-7.456-0.467-0.582-1.398-0.816-1.864-1.397-1.631-1.863-2.213-3.612-4.194-5.125-1.282-0.933-2.33-1.165-3.728-1.864-3.96-2.215-5.358-4.777-9.319-6.989-5.709-3.146-9.086-4.544-14.911-7.456-6.29-3.146-8.97-6.874-14.911-10.251-5.591-3.262-8.854-5.708-14.91-7.921-1.283-0.467-2.448-0.233-3.729-0.467-8.854-2.213-14.329-3.028-22.366-6.989-3.494-1.748-5.708-2.097-9.319-3.728-4.544-1.981-6.756-4.311-11.183-6.523-3.146-1.515-4.193-3.845-6.99-6.058-2.448-1.981-4.66-1.981-7.456-3.262-1.397-0.583-2.097-1.863-3.728-1.863-2.33 0-3.262 1.979-4.659 3.727-1.515 1.979-2.914 3.144-5.126 4.193-2.913 1.397-5.126 1.863-8.387 1.863-5.943 0-9.553-3.844-12.582-8.852-2.097-3.38-2.795-5.476-3.728-9.319-2.329-9.319-4.893-14.445-10.251-22.366-4.079-5.942-5.709-10.018-7.921-16.775-1.165-3.728-2.796-5.708-4.194-9.319-1.397-3.612-1.631-6.057-2.796-9.784-1.165-3.729-2.329-5.592-3.728-9.319-1.165-3.263-2.563-5.01-4.193-7.922-2.447-4.311-3.612-7.223-6.525-11.184-1.048-1.397-1.397-2.68-2.795-3.727-2.447-1.749-4.544-2.097-7.455-3.262-0.933-0.35-0.933-1.397-1.864-1.863-4.777-2.33-8.039-2.796-13.047-4.66-7.341-2.68-11.766-3.612-19.105-6.058-2.914-0.932-4.544-2.329-7.455-3.262-5.825-1.863-9.67-2.329-15.843-2.329-1.05 0-1.982-0.583-2.796 0-0.467 0.348 0.116 1.631-0.467 1.863-2.447 1.281-4.544 0.933-7.455 0.466-2.447-0.583-4.893-1.863-7.455-1.863-4.078 0-6.291 1.397-10.369 1.397h-14.678c-3.028 0-4.542 1.047-7.57 1.399-3.729 0.465-6.175-0.118-9.319 1.863-3.263 2.097-4.194 5.008-6.059 8.388-2.214 3.961-4.543 5.824-7.921 8.852l0.466 2.33c2.563 0 3.961 0.233 6.523 0 0.349 1.631 0.932 2.563 0.932 4.193 0 1.398-0.698 2.098-0.932 3.495-2.913 0-4.427 0.234-7.339 0.234-1.513 0-2.446-0.933-3.843-0.466-1.631 0.581-1.982 2.097-3.263 3.262-2.329 2.097-5.009 2.097-7.921 3.262-2.914 1.164-5.243 1.979-7.455 4.193-2.214 2.212-1.982 4.775-3.728 7.455-0.351 0.582-1.283-0.232-1.865 0-2.68-3.612-4.193-6.29-8.388-8.387 1.399 4.309 2.446 6.756 4.66 10.717l-5.126 5.592c0.581 0.232 1.864-0.233 1.864 0.466s-1.165 0-1.864 0c-3.379 0-5.243-0.932-8.62-0.932-4.893 0-7.573 1.631-12.349 2.796-3.028 0.699-4.892 0.931-7.921 1.397-5.824 0.815-9.204 1.398-15.144 1.398-10.95 0-17.358-0.117-28.191-1.863-3.028-0.466-4.893-0.817-7.921-1.397-8.388-1.515-12.931-4.194-20.503-7.922-3.028-1.515-4.427-3.379-7.455-4.66-3.146-1.282-4.427-3.378-7.455-5.125-10.252-5.942-14.213-11.999-24.23-18.173-2.913-1.748-4.893-2.563-7.922-4.193-6.874-3.845-10.135-8.155-13.979-14.911-5.01-8.738-4.777-15.143-9.319-24.23-2.447-5.009-4.079-8.737-8.854-11.648-4.427-2.68-6.874-6.058-12.114-6.058-5.01 0-7.688 2.678-12.115 4.659-3.03 1.398-5.243 1.398-8.388 2.33-8.97 2.796-13.047 6.757-21.434 11.184-7.222 3.727-10.95 6.871-16.309 13.047-3.262 3.727-6.175 4.892-8.854 8.854-2.68 3.96-4.659 6.406-8.387 9.318-2.214 1.747-3.379 3.379-6.059 4.66l0.933-1.864c4.893-6.523 7.338-10.835 12.581-17.24 2.212-2.796 4.427-4.079 6.523-6.989 1.399-1.982 2.097-3.729 3.728-5.592 1.631-1.864 3.262-3.029 5.126-4.66 3.495-3.261 5.358-5.708 9.319-8.387 4.075-2.796 6.989-3.495 11.184-6.058 1.979-1.165 4.659-1.748 4.659-4.194 0-2.447-2.563-3.26-3.262-5.591-0.817-2.68 0.232-4.66-0.467-7.456-0.931-3.961-5.708-2.912-9.318-4.659-7.223-3.612-10.602-7.34-16.31-13.047-2.679-2.68-5.009-3.613-7.455-6.523-0.466-0.583-0.35-1.398-0.932-1.864-6.99-6.408-11.766-9.669-16.775-17.707-3.028-4.891-4.893-7.921-7.455-13.046-1.981-3.961-4.193-6.523-4.193-11.068v-9.553c0-5.241 0-8.387-1.398-13.395-0.816-2.796-1.165-4.66-2.329-7.456-1.165-2.913-1.865-6.523-5.126-6.523-2.914 0-4.544 1.631-7.455 1.864-3.961 0.348-6.409 0.815-10.252 1.398-2.097 0.349-3.494 0.699-5.591 0.933-8.387 1.281-13.165 0.932-21.668 0.932-7.339 0-11.882 0.116-18.871-1.864-4.427-1.282-6.757-2.913-11.184-4.193-5.243-1.515-8.271-1.981-13.513-3.728-14.096-4.659-22.134-7.339-35.413-13.978-3.961-1.982-5.243-4.893-9.319-6.524-0.816 1.746-1.749 2.33-2.796 3.727-4.193 5.592-4.544 10.018-7.455 16.31-1.864 4.193-4.079 6.29-7.456 9.319-2.563 2.329-3.379 4.775-5.591 7.455-0.933 1.165-1.631 2.796-3.262 2.796-2.563 0-3.613-2.33-5.592-3.728 4.193-7.34 8.036-10.951 11.648-18.638 1.747-3.845 3.03-6.058 5.126-9.785 2.446-4.194 5.708-5.359 7.922-9.785 0.466-1.049 1.397-1.631 1.397-2.796 0-1.283-1.05-1.864-1.863-2.796-1.049-1.165-1.982-2.33-3.263-3.262-3.146-2.448-5.591-3.146-8.853-5.592-5.708-4.427-9.785-5.592-16.309-8.854-1.748-0.816-2.913-1.164-4.659-1.863-4.893-2.098-7.107-4.894-11.649-7.456-2.796-1.631-4.659-2.213-7.455-3.728-2.914-1.631-4.079-4.659-7.455-4.659-1.865 0-2.33 1.745-3.729 2.795-2.097 1.514-3.379 2.796-5.591 4.194-4.66 3.028-6.757 5.708-11.649 8.388-4.777 2.678-8.621 2.795-12.115 6.989-2.215 2.678-5.126 3.96-5.126 7.455 0 3.377 2.796 4.659 5.126 6.989 3.961 3.961 7.222 4.893 11.182 8.854 3.961 3.961 5.36 7.455 9.786 10.717 2.796 2.098 5.24 2.446 7.455 5.126 2.912 3.495 3.961 6.639 7.921 8.854 5.242 2.912 8.037 5.008 13.048 8.387 6.173 4.194 10.251 6.99 13.047 13.979-2.33 1.281-3.845 2.33-6.524 2.33-2.68 0-4.079-1.049-6.523-1.864-6.176-1.981-10.252-3.494-14.446-8.388-2.214-2.562-3.262-4.659-5.126-7.455-2.563-3.728-6.407-4.659-7.921-8.854-0.699-1.981-0.699-3.612-1.398-5.592-1.397-3.726-2.447-6.407-5.125-9.319-1.749-1.863-3.612-2.329-6.058-3.261-5.592-2.214-9.319-2.564-15.377-3.263-5.824-0.698-9.086-0.931-14.911-0.931-5.941 0-9.319 0.699-14.91 2.796-1.982 0.699-3.613 0.582-5.592 1.398-1.865 0.814-2.33 2.329-3.262 4.193-1.05 2.097-1.981 3.61-3.262 5.591-3.03 4.543-5.942 6.524-8.853 11.183-1.631 2.679-2.563 4.543-3.728 7.455-1.981 4.66-4.893 6.639-6.989 11.184-4.545 9.667-5.244 16.309-9.319 26.094-1.981 4.893-4.427 7.338-7.922 11.184-4.659 5.008-7.573 7.571-13.047 11.648-2.097 1.514-3.961 1.748-6.058 3.263-4.893 3.61-7.455 6.057-13.047 8.854-2.447 1.164-3.961 2.445-6.523 3.26-6.757 2.33-10.601 3.961-17.706 5.126-3.961 0.699-6.291 2.212-10.252 2.796-3.146 0.466-5.126 0.116-8.387 0.466-1.515 0.116-2.33 0.932-3.845 0.932h-14.212c-4.66 0-8.62-0.583-11.767 2.796-2.097 2.212-2.212 4.542-3.262 7.456-2.91 8.036-6.29 14.91-14.91 16.309-0.815-3.613-1.864-5.592-1.864-9.319 0-2.914-0.116-5.01-1.399-7.456-0.698-1.397-2.329-2.097-2.329-3.727 0-1.631 0.932-2.447 1.864-3.728 2.096-2.912 4.078-4.427 6.99-6.523 4.659-3.495 8.039-4.892 13.513-6.989 1.515-0.583 2.214-1.397 3.727-1.864 4.078-1.515 6.874-1.748 11.185-2.33 4.542-0.698 7.223-1.981 11.65-3.262 3.377-0.931 5.242-1.863 8.388-3.261 8.154-3.613 12.813-5.359 20.968-8.853 5.941-2.564 8.969-4.778 14.445-7.922 5.126-2.913 9.201-4.194 12.115-9.319 5.708-9.785 9.785-15.143 13.047-26.094 1.631-5.592 0.932-9.086 3.262-14.445 1.047-2.447 2.796-3.262 4.659-5.125 2.33-2.33 3.262-4.427 4.66-7.456 0.582-1.397 0.814-2.795 1.398-4.193 1.513-3.495 2.795-5.476 3.261-9.319 0.234-2.215-0.466-3.961 0.933-5.592 2.097-2.447 4.892-1.863 7.455-3.728 4.194-3.146 1.747-8.387 4.66-12.581 1.863-2.796 4.193-3.728 6.989-5.592 2.212-1.515 4.193-2.912 4.193-5.591 0-1.864-1.049-3.029-0.466-4.66 0.814-2.214 3.144-2.562 5.126-3.728 1.28-0.699 1.746-2.33 2.329-3.727 1.864-4.66 0.932-7.922 1.398-13.047 0.115-1.165 0.932-1.631 0.932-2.796 0-1.864-0.583-2.914-0.932-4.66-3.495-4.659-7.456-5.942-10.718-10.717-2.563-3.727-3.844-6.29-7.455-8.854-1.283-0.931-2.097-2.33-3.728-2.33-4.311 0-5.592 4.077-9.319 6.058-5.592 3.029-8.272 5.825-13.513 9.319-2.796 1.864-4.194 3.843-7.456 4.66 4.077-5.476 8.62-6.291 13.512-11.183 4.077-4.078 5.708-6.874 8.854-11.648 3.144-4.778 6.523-7.341 6.523-13.048 0-4.543-2.214-6.756-3.262-11.182-1.749-7.34-6.407-13.513-13.978-13.513-1.515 0-2.33 1.047-3.728 1.397-6.757 1.631-10.136 3.843-16.774 6.058-1.05 0.348-1.632 1.398-2.796 1.398-3.845 0-5.477-3.262-9.319-3.262-2.33 0-3.03 1.747-5.126 2.796-0.232-1.515-0.466-2.33-0.466-3.845 0-4.893 1.047-7.571 1.398-12.463 3.961 2.911 6.173 6.523 11.183 6.523 2.796 0 3.376-3.146 5.591-4.659 1.98-1.399 3.729-1.981 5.592-3.262 2.446-1.749 3.728-3.961 4.194-6.99 0-0.583-0.698-1.282-0.466-1.863 0.815-2.098 3.03-2.448 5.126-3.262-1.281-5.476-2.913-8.62-6.058-13.047-1.397-1.982-3.612-2.215-5.592-3.728-1.981-1.515-2.796-3.38-5.125-4.66-4.078-2.215-6.875-3.262-11.183-5.126-2.796-1.282-4.777-1.631-7.455-3.262-3.845-2.33-4.893-5.125-8.388-7.921-4.193-3.379-8.387-2.914-13.047-5.592-0.698-0.35-0.698-1.515-1.398-1.864-1.283-0.698-2.33-0.816-3.729-1.398-4.193-2.796-6.873-3.727-11.182-6.058-2.447-1.282-3.379-3.262-5.592-5.125-2.563-2.215-4.427-3.495-7.455-4.66-3.845-1.515-6.06-3.262-10.253-3.262-1.631 0-1.746 2.33-2.33 3.727-0.815 2.212-1.631 3.495-2.796 5.592-2.563 4.66-5.008 6.639-7.455 11.649-2.912-0.699-4.66-1.398-7.456-2.33l7.922-22.832c-4.193-5.592-9.087-6.757-15.843-8.388-3.61-0.816-5.94-0.35-9.319-1.865-3.728-1.631-5.126-5.591-9.32-5.591-2.911 0-2.911 3.494-4.193 6.058-1.98 4.076-4.077 5.94-6.99 9.319-5.707 6.639-6.291 12.813-12.582 19.104 0-3.961-0.348-6.409-1.397-10.252-0.233-1.049-0.932-1.631-0.932-2.796 0-2.447 1.863-3.612 1.863-6.057 0-1.864 0.233-3.38-0.932-4.66-0.348-0.466-1.281-0.232-1.863-0.466-2.796-1.398-4.776-1.049-7.922-1.398-0.931 0-1.047-1.165-1.863-1.398 7.106-4.66 14.678-2.447 19.569-9.319-3.377-2.447-5.359-4.659-9.32-6.058-5.591-2.097-9.434-1.981-15.376-3.262-6.407-1.398-10.251-3.262-16.89-3.262h-9.553c-4.078 0-6.408 1.165-10.369 1.864-4.194 0.698-6.989 0.698-11.183 1.398-3.729 0.581-5.708 2.212-9.319 3.262-2.098 0.581-3.611 0.234-5.592 0.933-1.514 0.581-2.097 1.863-3.262 2.795-0.699 0.581-0.466 1.864-1.398 1.864-1.863 0-2.795-1.399-4.659-1.399-4.194 0-6.406 1.864-10.251 3.263-4.542 1.631-7.572 2.563-11.184 5.591-1.281 1.048-1.746 2.564-3.262 3.262-2.563 1.281-4.775-0.816-7.455 0-1.747 0.467-2.097 2.446-3.262 3.727-2.796 3.029-4.893 4.894-8.388 6.99-6.29 3.843-10.717 4.775-17.24 8.388-8.271 4.541-10.367 11.298-18.639 15.843-4.077 2.211-7.105 2.795-11.183 5.125-7.571 4.309-11.997 7.338-18.172 13.513-2.446 2.446-4.894 3.029-7.456 5.592-1.281 1.281-1.513 2.446-2.796 3.727-2.445 2.446-4.659 3.262-7.455 5.126-3.495 2.329-5.242 4.892-8.854 6.989-6.639 3.961-11.298 5.708-16.774 11.184-2.33 2.329-3.843 4.076-6.989 5.125-4.776 1.514-8.388 0.699-13.048 2.796-4.659 2.097-7.921 4.542-11.648 7.922l-12.115-42.869c-1.047 1.746-2.678 2.678-4.659 3.262l11.182 31.686c0 3.611 1.283 6.989-0.932 9.785-0.931 1.165-2.446 1.631-3.729 2.33-1.513 0.932-2.211 2.33-3.726 3.262-3.495 2.329-6.525 4.542-6.525 8.854 0 1.979 2.33 2.678 2.33 4.659 0 3.729-5.008 3.262-7.921 5.592-4.076 3.262-5.126 6.757-6.99 11.649-1.281 3.61-2.329 5.94-4.193 9.319-1.165 2.211-2.678 3.144-4.659 4.659-1.398 1.047-2.33 2.212-3.729 3.262-0.932 0.699-1.165 1.864-2.329 1.864-2.564 0-3.961-1.165-6.525-1.398-2.211-0.232-3.376 0.116-5.591 0-6.173-0.466-9.668-0.931-15.843-0.931-4.775 0-7.455 0.233-12.115 0.931-2.097 0.349-3.495 1.048-5.592 1.398-1.281 0.116-2.445-0.233-3.728 0-1.746 0.232-1.863 3.262-3.727 3.262-2.212 0-3.377-1.398-5.592-1.398-2.446 0-4.077 1.631-5.126 3.727-7.455-3.727-10.717-7.339-18.173-10.717-4.891-2.215-8.036-3.146-13.046-5.126-2.213-0.816-3.145-2.796-5.592-2.796-2.912 0-2.446 3.961-3.727 6.525-0.815 1.63-2.796 1.397-4.66 1.397-2.678 0-3.961-1.397-6.639-1.397h-22.251c0-0.234 0.932-0.118 0.932-0.466 0.583-2.914-1.047-4.66-0.466-7.456 0.583-3.262 4.659-4.078 4.659-7.455 0-3.379-2.678-4.777-5.125-6.99-5.008-4.659-9.785-4.891-14.911-9.319-2.796-2.447-5.592-3.146-6.989-6.523-1.165-2.913-1.863-4.777-3.262-7.455-2.097-3.727-4.427-5.358-6.058-9.319-4.775 0.699-6.173 4.542-10.251 6.989 0.232-2.795 1.397-4.193 1.397-6.989s-3.727-3.146-6.523-3.262c-2.445-0.118-3.262-2.796-5.592-3.262-4.426-1.049-7.455-0.583-11.648-2.33-1.398-0.582-2.097-1.863-3.728-1.863-2.33 0-2.33 3.144-3.263 5.126-0.698 1.397-1.513 2.329-2.329 3.726-1.864 3.379-2.212 6.059-3.262 9.786 0.699-3.147 1.398-5.126 1.398-8.388s-0.232-6.058-2.796-7.921c-1.863-1.398-3.61-1.283-5.591-2.33-3.729 0.581-5.126 2.33-8.853 2.796-8.854 1.047-13.862 2.33-22.366 4.659-4.542 1.165-7.338 1.864-11.65 3.727-3.727 1.631-5.824 3.495-9.319 5.592-3.377 2.097-6.058 2.912-9.319 5.126-2.097 1.398-3.028 3.262-5.125 4.659-3.961 2.679-6.99 3.145-11.183 5.592-2.912 1.631-4.775 2.678-7.455 4.659-2.912 2.098-3.728 4.776-5.592 7.922-2.212 3.61-3.961 5.824-6.989 8.854-4.077 4.075-7.804 5.125-13.048 7.455-5.007 2.212-5.358 7.223-9.319 11.184-8.502 8.502-12.813 14.56-23.763 19.104-3.61 1.398-5.592 3.028-9.319 4.193-4.194 1.398-6.872 1.047-11.182 1.864-2.214 0.348-3.377 1.513-5.592 1.863-5.008 0.933-8.27 0.349-13.047 1.864-4.309 1.397-5.825 5.474-8.854 8.852l0.466 1.864c-1.047 0.116-1.631 0.466-2.678 0.466-4.078 0-6.291-1.863-10.369-2.33-0.815 0-1.047-0.932-1.863-0.932-0.933 0-1.048 1.165-1.864 1.398 0.117 2.212-0.116 3.728 0.931 5.592 0.35 0.699 1.399 0.699 1.863 1.397 1.516 2.097 2.448 4.66 5.126 4.66 1.864 0 3.728-0.933 5.592-1.398 1.397-0.584 2.33-1.049 3.727-1.864 1.283 2.33 1.749 4.542 4.193 5.592 3.379 1.398 5.943 0.467 9.319 1.864 1.749 0.698 2.68 2.329 4.66 2.329 1.981 0 2.796-1.164 4.659-1.863 4.427-1.631 7.34-2.097 12.115-2.796-0.348 0.582 0 1.513-0.466 1.863-2.097 1.514-5.126 1.98-5.126 4.66 0 4.193 6.059 4.077 7.456 7.922 1.05 2.678 1.398 4.541 1.398 7.455 0 1.398-0.581 2.445-0.932 3.728-2.212-1.283-3.727-2.097-5.592-3.728-2.563-2.214-4.076-4.659-7.455-4.659-0.931 0-0.581 1.398-1.398 1.863-0.581 0.232-1.281 0.232-1.863 0.466-1.398-2.447-2.446-4.659-5.126-5.592-3.376-1.164-5.824-0.117-9.319-0.932-3.144-0.699-4.775-2.447-7.455-4.193-0.466 0.699-1.747 0.581-1.864 1.397-0.932 3.495 0 5.94-0.932 9.319-0.466 1.864-1.864 2.679-1.864 4.66 0 2.563 1.864 3.843 1.864 6.406v3.845c-2.563-2.33-4.193-3.845-5.592-6.989-0.932-2.097-0.932-5.126-3.262-5.126-2.445 0-3.843 1.281-6.058 2.33 1.165 2.329 2.68 3.494 3.263 6.058 0.698 3.028 0.232 5.008 1.398 7.921 1.165 2.912 2.796 4.309 3.262 7.456l-1.864 0.466c-1.513-3.961-4.193-5.824-7.921-7.456-1.399-0.583-2.213-1.631-3.728-1.863-3.029-0.584-5.009 0.466-7.922-0.466-5.008-1.632-6.291-5.825-10.717-8.854-1.98-1.283-3.611-1.982-5.592-3.262-1.398-0.931-3.262-1.515-3.262-3.262 0-3.379 2.33-5.126 4.659-7.456 2.214-2.213 3.262-5.591 6.525-5.591 0.931 0 1.164 1.047 1.863 1.397 1.397 0.815 2.097 2.097 3.262 3.262 1.749 1.746 2.914 2.912 4.193 5.126 4.544-2.214 7.34-5.592 7.922-10.717l-3.262-6.523c2.796-1.398 4.427-3.029 6.058-5.593l-0.933-3.727c-5.241 3.727-8.854 6.989-15.376 6.989-2.564 0-3.961-1.398-6.523-1.398-2.564 0-3.029 2.796-4.66 4.659-2.678 3.145-3.144 5.941-5.592 9.319-2.796 3.844-6.406 4.428-8.854 8.388-1.165 1.98-1.398 3.377-1.863 5.592-1.281 5.358-3.495 7.922-5.126 13.047-1.863 5.592-1.979 9.435-4.193 14.911-2.912 6.989-4.077 11.298-5.592 18.638-0.349 2.097-0.349 3.495-0.931 5.591-0.699 2.33-2.563 3.378-3.262 5.592-1.398 4.31-1.98 6.99-3.727 11.184-0.815 2.097-0.699 3.961-2.33 5.592s-3.611 0.698-5.592 1.863c-1.979 1.165-2.796 3.262-5.125 3.262-2.912 0-4.543-1.397-7.456-1.397-3.494 0-6.523 2.563-6.523 6.058 0 3.262 1.631 5.125 1.864 8.388-1.047-0.351-1.631-0.933-2.796-0.933-1.281 0-1.747 1.281-2.796 1.863-4.309 2.33-6.639 4.194-11.184 6.059 0.118 0.58-0.232 1.28 0 1.863 2.68 5.474 11.65 4.193 11.65 10.251 0 3.262-0.699 5.474-1.863 8.388-0.699 1.631-1.98 2.097-2.797 3.727-1.979 3.961-2.329 6.757-2.795 11.184-0.932 7.803-3.029 11.764-3.727 19.57 0 0.699-0.699 1.047-0.699 1.746v14.678c0 2.562-1.047 3.961-1.631 6.408-1.165 5.008-0.234 8.388-2.33 13.047-0.581 1.399-1.747 2.33-2.33 3.728-1.631 4.076-0.348 7.689-2.796 11.184-1.631 2.33-4.309 1.746-6.989 2.796-1.513 0.581-2.097 1.631-3.262 2.796-3.377 3.377-4.309 6.406-6.058 10.717-2.795 6.757-5.591 10.134-8.854 16.774l-0.466 1.864c5.01-3.961 6.175-8.272 9.319-13.979 2.68-4.778 6.175-6.291 10.718-9.319 3.494 3.494 4.893 6.058 8.854 8.854l3.726-1.864c2.33 1.281 3.845 2.796 6.525 2.796 2.447 0 2.68-3.146 3.262-5.476 2.213 0 3.378 0.816 5.592 0.816 1.515 0 2.214-1.282 3.727-1.398 3.612-0.35 5.708 0.466 9.319 0.466 2.913 0 4.544-0.584 7.455-0.932 0.931-0.118 0.931-1.398 1.864-1.398 1.049 0 0.931 1.514 1.863 1.864 0.933 0.348 1.749 0.466 2.796 0.466 2.33 0 3.262-2.33 5.592-2.33 4.777 0 7.339 1.398 12.115 1.398 0.816 6.872 1.164 10.95 3.727 17.24 1.515-1.749 2.562-3.028 3.727-5.125 5.243 2.796 8.387 6.056 14.445 6.056 3.146 0 4.543-2.213 6.523-4.659 0.466-0.699 1.515-0.699 1.863-1.397 1.515-2.564 1.165-4.66 2.33-7.456 0.931-2.33 2.097-4.659 4.66-4.659 1.515 0 2.213 1.398 3.261 2.329 1.749 1.514 2.214 3.611 2.33 6.058-0.815 0.233-0.931 1.398-1.864 1.398-1.164 0-1.63-0.933-2.795-0.933-1.047 0-2.212-0.232-2.796 0.467-1.398 1.746-1.048 3.494-1.864 5.592-0.348 0.932-1.397 1.047-1.864 1.863-0.698 1.281-0.931 2.446-1.863 3.727-0.815 1.165-1.979 1.631-3.262 2.33-3.029 1.746-4.892 3.262-8.388 3.262-3.262 0-5.358-0.933-8.387-1.864-2.098-0.584-3.377 0-5.592-0.466 0.35 4.31 0.699 6.872 0.118 11.184-3.379 0-5.592 1.631-7.573 4.193-0.581 0.815-1.864 0.815-1.864 1.863 0 0.815 0.931 1.048 0.931 1.864-2.212 0.116-3.377-0.583-5.592-0.466-1.28 0-2.795 0.581-2.795 1.864 0 1.281 1.747 1.281 2.795 1.863 1.283 0.699 1.864 1.747 2.796 2.796 0.467 0.581 0.233 1.513 0.933 1.864 1.165 0.698 2.33-0.234 3.727-0.467 0.816 2.098 0.232 3.961 1.863 5.593 1.982 1.979 4.66 1.164 7.456 1.863-0.234 1.281-0.467 2.563-0.932 3.727-0.699 1.631-2.679 1.281-3.729 2.796-0.232 0.466-0.232 1.281-0.466 1.864 1.398 0.232 2.214 0.466 3.613 0.466 3.144 0 4.775-1.631 7.571-2.796-0.116 2.678-1.864 3.843-1.864 6.523 0 0.931 1.515 0.699 1.864 1.397 1.165 1.864 1.863 3.262 1.863 5.475v3.844c-2.795-1.515-3.96-3.262-6.523-5.125 0.118 1.979 0.466 3.144 0.466 5.125 0 1.281-1.397 1.746-1.863 2.796-0.348 0.815-0.581 1.514-0.931 2.33-1.631 3.144-2.912 6.523-6.525 6.523-1.863 0-2.795-0.699-4.659-0.932-2.212-0.233-3.377 0.348-5.591 0.814v-10.485c0-2.329-1.281-3.376-1.398-5.706-1.98 0.815-3.377 1.281-5.592 1.398l-0.466-1.863c2.097-2.097 3.727-3.612 3.727-6.523 0-3.262-2.33-4.893-3.262-7.922-0.699-2.214-0.932-5.125-3.262-5.125-1.397 0-2.446 0.698-3.727 0.932-3.495 0.698-5.94 0.466-9.319 1.398-2.212 0.581-3.377 1.514-5.592 1.864-5.706 0.932-9.086 0.232-14.91 0.466-2.213 0-3.495 0.932-5.707 0.932-9.553 0-15.029-0.232-24.581 0.116l-7.456-3.377c-5.94 4.66-8.502 8.853-12.58 15.377-3.729 6.058-7.456 9.667-7.456 16.775 0 2.445 2.214 3.376 4.193 4.659 1.982 1.281 3.845 1.746 5.592 3.262 2.215 1.979 2.097 4.427 2.33 7.455 0.117 2.212 0.583 3.377 0.466 5.592-0.116 1.398-0.932 2.446-0.466 3.727 1.397 3.843 7.921 3.262 7.921 7.456 0 1.513-1.513 1.979-2.329 3.26-1.98 3.145-2.097 5.708-3.262 9.319-3.144-1.048-5.008-2.447-6.989-5.125-0.933-1.282-0.699-2.796-1.398-4.194-0.699-1.282-2.33-1.748-2.33-3.26 0-1.515 1.398-2.215 1.398-3.729 0-2.912-0.815-6.523-3.729-6.523-3.494 0-4.775 2.678-7.921 4.193-3.028 1.514-5.008 2.33-8.388 2.33-1.863 0-2.795-0.931-4.659-0.931-1.514 0-2.097 1.514-3.262 2.33-1.281 0.932-2.33 1.631-3.727 2.33-1.98 0.932-3.843 0.115-5.592 1.398-3.028 2.33-2.097 5.941-4.193 9.319-1.281 2.212-3.029 3.144-5.126 4.66-5.008 3.61-8.62 6.057-14.911 6.523l-0.466 1.864c1.631 2.911 3.146 4.427 4.66 7.455 3.845 7.804 5.243 13.163 11.183 19.571 3.845 4.193 2.914 9.319 7.456 12.581 4.777 3.377 8.387 4.427 13.047 7.921 5.824 4.309 8.97 7.338 13.513 13.047 1.397 1.864 2.33 3.262 3.727 5.126 1.981 2.563 4.194 3.843 4.659 6.989 0.817 5.126 3.147 7.804 3.263 13.047 0.117 4.66 1.398 10.251 6.057 10.251 3.729 0 4.66-4.659 8.388-4.659 1.631 0 2.447 1.047 3.727 1.864 3.263 1.979 4.66 4.542 5.592 8.387-0.581 0.116-1.398-0.35-1.864 0-2.096 1.631-2.795 3.377-5.125 4.66-1.979 1.047-3.377 1.979-5.592 2.329-2.097 0.349-3.495-0.35-5.592 0-3.61 0.699-5.591 2.797-9.318 2.797-5.359 0-7.804-4.893-9.785-9.786-1.048-2.68-1.048-4.777-1.864-7.455-0.815-2.447-2.33-3.845-2.33-6.523 0-1.165 1.165-1.749 1.398-2.796 0.351-1.515-0.348-2.796 0.467-4.194 0.816-1.398 2.68-1.164 3.728-2.329 0.931-1.05 1.049-2.33 1.397-3.728-2.795-1.398-5.592-0.933-7.455-3.263-0.815-1.048-0.581-2.447-0.933-3.727-2.329 1.745-3.61 3.727-6.523 3.727-3.96 0-6.522-0.35-10.251-1.398-2.212-0.583-3.96-0.698-5.591-2.329-1.048-1.049-0.815-2.563-1.864-3.729-1.047-1.165-2.446-1.397-3.727-2.329-2.912-2.098-4.194-3.961-6.525-6.525-1.63-1.863-2.562-3.612-4.193-5.591-2.563-3.029-6.057-2.215-9.785-3.729-4.893-1.981-7.804-2.912-13.047-4.193 0.584-7.573 2.68-11.649 5.592-18.638 1.981-4.893 2.562-8.039 4.193-13.047 1.165-3.612 2.33-5.592 3.262-9.319 0.699-2.913 0.35-5.358 2.33-7.455 1.981-2.215 5.01-1.397 7.455-3.262 2.098-1.515 3.029-3.029 4.66-5.126 1.397-1.863 1.981-3.612 3.262-5.592 3.146-4.659 6.523-6.989 7.921-12.58l25.628-47.994c2.914 2.911 5.244 5.125 9.319 5.125 1.049 0 1.283-1.165 1.864-1.864 0.816-0.932 1.515-1.981 2.796-2.329 2.097-0.466 3.845-0.233 5.592-1.398 1.981-1.397 2.68-3.028 3.727-5.126 0.698-1.398 1.863-2.096 1.863-3.727 0-3.379-2.911-4.544-5.125-6.99l11.182-25.628-2.795 0.466-11.649 22.833c-0.815 1.28-1.514 2.329-2.33 3.726-0.466-0.466-0.234-1.748-0.931-1.863-2.796-0.699-4.543-0.118-7.456-0.466-0.232 2.562 0.699 4.427-0.466 6.523-1.165 2.097-3.96 1.864-5.592 3.728-1.513 1.746-2.91 3.843-4.659 5.592l-34.947 65.701c-3.495 2.563-5.94 3.728-9.319 6.523-0.581 0.466-0.349 1.398-0.932 1.863-1.165 0.933-2.912 1.048-4.194 1.864l-10.717 34.016c-1.864-1.398-3.145-3.262-5.592-3.262-2.562 0-3.377 2.563-5.592 3.728-2.678 1.397-4.775 1.746-7.455 3.262-0.699 0.348-1.398 1.747-1.864 2.33l-68.962-52.188c-0.116 0.581 0.232 1.281 0 1.864-0.467 0.815-1.864 1.631-2.33 2.33l68.497 51.255c1.397 5.591 0.35 9.434 2.329 14.91 1.631 4.427 4.427 6.639 8.854 8.388-0.233 2.912-0.466 4.543 0 7.455l-2.33 0.467c-1.979-1.748-3.144-3.029-4.659-5.126-1.398 2.097-2.212 3.727-3.727 5.592-1.98 2.33-3.728 3.843-3.728 6.989 0 2.212 1.863 3.029 3.728 4.193 0.584 0.349 1.515 0 1.863 0.466 0.699 1.048 0 2.33 0 3.729 0 5.241-1.398 8.154-3.261 13.046-1.165 3.029-1.632 5.126-3.263 7.922-1.281 2.212-3.028 3.262-3.727 5.592-0.348 1.28 0.118 2.329 0 3.728-0.581 5.358-3.262 7.921-4.659 13.047-0.933 3.495-1.98 6.173-3.729 9.319-1.698 10.423-4.942 15.791-8.548 25.294h2075.2c1.367-0.597 2.683-1.062 4.504-1.062 1.165 0 1.631 0.932 2.796 0.932 2.796 0 3.728-1.748 6.058-3.262l23.764-49.858c2.33 0.234 3.961 0.116 6.058 0.933 2.33 0.932 3.029 3.728 5.592 3.728 3.144 0 4.776-2.215 6.523-4.66 1.865-2.68 3.611-4.311 4.659-7.455-1.398-0.233-2.213-0.466-3.611-0.466-5.126 0-8.038 1.513-13.163 1.864-0.35-1.049-0.932-1.632-0.932-2.797 0-1.863-0.466-3.612 0.932-4.659 1.165-0.817 2.33-0.932 3.729-1.398 2.91-1.049 4.309-2.68 7.455-2.796 2.212 0 3.495 0.931 5.591 0.466 3.145-0.699 5.126-2.097 6.99-4.659 3.262-4.545 4.309-7.807 6.523-13.048 2.445-5.591 5.125-8.154 7.922-13.513 3.494-6.641 4.193-11.068 7.455-17.707 1.746-3.612 3.843-5.476 5.125-9.319 2.563-7.921 5.241-12.232 6.524-20.502 0.232-1.749 0.932-2.796 0.932-4.66 0-4.193-2.33-6.174-3.262-10.251 4.775-0.699 8.036-2.447 10.251-6.523 1.047-1.981 1.281-3.612 2.33-5.591 4.309 1.398 7.223 1.28 11.183 3.261 2.912 1.514 3.843 3.961 6.989 4.66 2.796 0.699 4.66 0.116 7.456 0.932 11.183 3.262 14.445 11.882 25.162 16.31l1.863 0.466c-2.541-2.567-2.774-5.247-5.569-7.46zm-1599.2-390.94c-2.678 4.66-5.358 6.641-8.854 10.718-1.746 2.097-2.678 3.845-4.659 5.592-4.66 4.311-7.223 7.222-10.717 12.581-2.564 3.96-4.077 6.408-7.456 9.785-2.212 2.214-5.126 3.262-5.126 6.523 0 4.311 4.544 5.476 7.922 7.921 1.398 1.049 3.262 1.864 3.262 3.727 0 1.05-0.349 1.749-0.466 2.796-8.969 1.049-14.212 2.796-23.298 2.796-1.864 0-2.796-0.932-4.66-0.932-2.447 0-3.494 1.981-5.126 3.727-1.631 1.864-2.68 3.612-4.193 5.592-2.796 3.494-7.689 1.863-10.718 5.126-3.028 3.262-0.931 7.805-3.728 11.183-2.796 3.379-6.756 2.214-11.182 3.262v3.612c0 3.843 2.212 5.824 3.262 9.435 0.931 2.914 0.815 5.01 1.864 7.922 1.397 3.728 2.91 5.942 5.125 9.319 0.931 1.515 2.563 2.097 3.262 3.728 0.815 2.097 1.047 3.495 1.864 5.592 1.513 3.844 2.445 6.408 4.659 9.785 2.098 3.146 4.893 4.078 6.523 7.455 1.631 3.262 0.699 6.291 2.796 9.319 1.047 1.515 2.796 1.283 4.193 2.33 1.864 1.398 2.796 3.146 2.796 5.592 0 11.766-5.942 17.358-8.387 28.89-1.981-3.495-2.68-5.825-4.659-9.319-2.68-4.776-4.544-7.689-6.059-13.047-0.816-2.796-1.397-4.66-1.863-7.456-0.351-2.097 0.348-3.843-0.931-5.592-2.098-2.91-5.592-2.563-9.319-2.795 0-4.31-2.098-6.639-3.263-10.718-1.863-6.639-2.563-10.717-6.056-16.774-3.146 3.146-3.263 6.408-6.058 9.785-3.495 4.079-5.592 7.223-5.592 12.581 0 0.932 1.398 0.699 1.864 1.398v9.204c0 4.194-2.564 6.407-4.66 9.902-2.563 4.193-2.68 8.271-6.989 10.717-3.845 2.215-7.34 1.398-11.183 3.728-1.515 0.931-1.981 2.214-3.728 2.796-1.981 0.699-3.612 0.584-5.592 1.398-0.932 0.35-0.816 1.863-1.863 1.863-0.817 0-1.049-0.933-1.864-0.933 2.796-3.96 5.474-5.824 9.785-7.921 3.843-1.863 4.427-5.358 6.058-9.319 1.398-3.61 3.727-5.358 3.727-9.319 0-3.61 0.583-6.172-0.932-9.319-0.583-1.281-2.33-1.746-2.33-3.262 0-3.262 4.194-4.193 4.194-7.455 0-1.398-0.699-2.446-0.466-3.728 0.698-3.145 2.678-4.427 3.726-7.456 0.467-1.398 1.165-2.329 1.398-3.728 0.116-1.281-0.233-2.678 0.466-3.727 1.281-1.979 4.077-1.631 5.126-3.728 0.581-1.165 0-2.33 0-3.727v-5.592c0-5.126 2.097-9.086-0.932-13.047-1.283-1.746-3.262-1.864-5.592-1.864-3.728 0-5.709 2.33-9.437 2.33-0.932 0-1.398-0.466-2.33-0.466v-7.456c-4.076 0.466-6.173 2.68-10.133 3.263-6.408 1.048-10.369-0.117-16.774 0.932-3.029 0.466-4.428 2.329-7.573 2.329-1.048 0-1.631-0.348-2.679-0.465 0.581-5.009 1.398-7.922 1.398-12.93 0-0.817-0.466-1.165-0.466-1.982-1.283 0.467-2.33 0.933-3.728 0.933-2.914 0-4.544-1.398-7.456-1.398-1.631 0-2.68 1.283-3.728 2.33-1.864 1.864-2.914 3.495-3.262 6.058-0.466 3.029-0.35 6.291-3.262 7.455-0.584 0.233-1.283-0.698-1.864-0.465-0.816 0.232-0.698 1.397-1.397 1.863-1.631 1.282-3.146 1.748-3.729 3.728-0.582 2.097-0.117 3.494-0.466 5.592-0.932 4.66-1.863 7.34-1.863 12.115-4.544-1.048-6.875-2.679-11.183-4.194-2.214-0.814-3.379-2.097-5.591-2.795-1.283-0.349-2.448-0.234-3.729-0.466-1.748-0.349-2.795-1.864-2.795-3.729 0-2.678 2.678-3.61 5.125-4.659 3.611-1.631 5.824-2.446 9.319-4.194 2.796-1.398 4.542-1.863 7.456-2.796 1.397-0.465 2.796-0.232 3.726-1.397 0.815-1.047 0.349-2.446 0.467-3.728 0.116-1.281 0.931-2.212 0.931-3.611v-4.777c-5.942 0.466-9.437 1.398-15.377 1.398-3.96 0-5.942-1.631-9.785-2.33-2.447-0.349-3.96-0.349-6.523-0.933h19.452c1.631 0 2.33-1.046 3.845-1.397 2.33-0.698 3.844-0.582 6.059-1.398 3.61-1.398 5.474-3.029 9.318-3.727 4.66-0.933 7.105-2.678 11.183-5.126 2.796-1.746 4.193-4.193 7.455-4.193 0.932 0 1.047 1.048 1.864 1.397 2.33 1.165 3.727 2.33 5.591 4.194 2.563 2.562 3.961 4.31 5.593 7.455 0.931 1.863 1.513 4.193 3.726 4.193s3.495-0.932 5.708-0.932h10.95c1.515 0 2.33 0.583 3.845 0.466 3.028-0.234 4.659-1.513 7.455-2.33 1.281-0.348 2.912 0 3.728-0.932 2.33-2.562 0.349-5.708 0.933-9.319l-0.933-3.727 0.466-1.864c3.961 2.214 6.872 2.33 11.183 3.727 2.213 0.699 3.144 2.796 5.592 2.796 2.446 0 3.611-2.097 5.592-3.262l7.455-4.659c3.028-1.864 5.474-2.679 7.455-5.592 1.747-2.678 2.33-4.775 4.194-7.455 2.562-3.728 5.592-4.194 8.853-7.456 3.495-3.495 5.009-6.524 6.524-11.183 1.047-3.145 2.329-5.008 2.329-8.388 0-1.863 0.581-3.262-0.466-4.659-0.931-1.165-2.329-1.048-3.727-1.864 1.979-2.796 4.076-3.727 6.058-6.523 1.864-2.562 1.631-4.66 2.796-7.455 1.397-3.611 2.796-5.474 3.727-9.319 0.466-2.098 0.116-3.611 0.932-5.592 0.933-2.097 1.981-3.262 2.33-5.592l-1.864-0.466c-2.097 0.816-3.379 1.864-5.709 1.864-1.397 0-2.212-0.349-3.611-0.467v-3.262c1.398-3.61 0.933-6.756 3.729-9.318 0.466-0.349 1.28-0.116 1.863-0.467 2.097-1.398 3.495-2.445 5.592-3.728 0.583-0.349 0.466-1.281 0.931-1.864l-3.727-2.795c0.815-2.097 1.864-3.262 1.864-5.592h1e-3c0-4.893-5.824-5.942-6.523-10.717-0.118-1.283-0.817-2.68 0-3.729 1.047-1.282 2.562 0.466 4.193 0.466 1.397 0 2.33-0.35 3.728-0.466 8.039-0.582 12.465 0.933 20.502 0.933 2.914 0 5.477-1.049 7.456 0.931 1.982 1.979 1.283 4.659 1.863 7.455 0.933 4.542 2.098 6.989 4.194 11.184 2.447 5.009 7.339 5.708 9.785 10.717 0.584 1.165 0.466 2.447 0.933 3.728 0.232 0.817 1.164 1.049 1.397 1.864 1.631 4.427 1.863 7.339 1.863 12.115 5e-3 3.846-2.325 5.592-4.188 8.853z" fill="#ED2939"/>
 <polygon points="2336 798.68 2333.3 799.61 2333.6 822.1 2337 822.1" fill="#ED2939"/>
 <path d="m2307.2 334.58c-0.348-1.515-1.631-2.447-2.329-3.728-2.33-3.845-4.194-5.942-6.523-9.785-4.428-7.107-9.553-9.319-16.775-13.514-2.796-1.631-4.775-2.097-7.455-3.728-4.893-3.028-5.592-7.223-10.251-10.717-1.165 4.659-1.515 8.036-3.729 12.115-2.447 4.541-6.64 6.058-7.455 11.183-0.816 5.126-1.283 8.503-3.728 13.047-1.515 2.796-4.194 4.194-4.194 7.455 0 1.514 1.632 1.98 2.33 3.263 0.699 1.281 0.815 2.446 1.398 3.728 1.979 4.077 4.775 5.708 8.387 8.388 3.145 2.329 5.592 2.329 9.319 3.728 2.796 1.047 4.427 2.097 7.456 2.33 3.612-0.584 6.756 1.282 10.251 1.863 2.796 0.466 4.543 0.118 7.455 0.466 4.427 0.467 6.757 1.864 11.184 1.864 2.913 0 5.01-0.581 7.455-1.864 0.817-0.348 1.864-0.814 1.864-1.863 0-5.244-2.446-7.922-3.728-13.048-1.048-4.194 0.233-7.106-0.932-11.183z" fill="#ED2939"/>
 <path d="m1270.9 1322.9c0 3.727 1.98 5.708 2.796 9.319 1.283 5.358 1.749 9.203 5.592 13.046 3.262 3.263 5.942 4.079 9.319 7.456 0.118-0.815 0.932-1.047 0.932-1.863 0-0.815-0.814-1.165-0.932-1.864-1.165-4.775-3.843-6.757-6.523-10.718-3.262-4.775-3.262-9.319-7.455-13.513l-3.729-1.863z" fill="#fff"/>
 <path d="m1338 1386.7c-2.33 0.35-3.377 1.397-5.708 1.397-1.397 0-2.214-0.349-3.612-0.466-0.815-4.077-3.262-5.824-5.592-9.319-2.097 1.397-3.612 2.33-5.592 3.728-0.698 0.466-0.698 1.515-1.397 1.864-1.165 0.583-2.796 0.117-3.728 0.932-1.049 0.932-1.398 2.214-1.398 3.728 0 2.563 2.446 3.379 4.194 5.126 4.427 4.427 8.039 6.174 12.581 10.717 1.981 1.981 2.563 3.845 4.659 5.592 3.495 3.028 7.455 4.66 7.455 9.319 0 1.863-1.397 2.796-1.397 4.66 0 0.932 1.282 0.932 1.864 1.397 1.164 1.049 2.447 1.398 3.728 2.329 1.981 1.399 2.795 3.263 5.125 4.194 3.613 1.399 5.825 2.447 9.319 4.193l0.467-1.863c-2.797-4.194-4.31-6.757-6.523-11.184 2.795-2.097 5.591-3.495 5.591-6.989 0-2.911-4.193-2.562-6.058-4.66-0.814-0.932-0.932-2.329-0.932-3.728 0-1.397-0.233-2.678 0.466-3.728 0.817-1.281 2.563-1.399 3.728-2.329 0.466-0.349 0.118-1.281 0.466-1.864-3.26-1.631-5.94-1.399-9.319-2.796-4.66-1.864-8.387-5.125-8.387-10.25z" fill="#fff"/>
 <path d="m1265.7 1423.5c-2.212 0.233-2.912 2.212-3.728 4.193-1.746 3.961-0.815 6.873-1.864 11.184l1.864 1.398c2.796-3.845 7.455-5.358 7.455-10.252 0-1.981-0.814-3.146-1.863-4.659-0.582-0.815-0.814-1.98-1.864-1.864z" fill="#fff"/>
 <path d="m1397.1 1380.7c1.632 1.863 2.098 3.728 4.194 5.125 1.165 0.699 2.563 0.699 3.728 1.399 1.397 0.816 1.981 2.33 3.262 3.262 1.864 1.397 3.379 1.749 5.592 2.796 1.397-2.796 2.796-4.31 2.796-7.456 0-2.445-3.03-2.563-4.194-4.659-0.348-0.581-0.232-1.281-0.466-1.864-1.164-2.097-2.329-4.193-4.775-4.193-1.05 0-1.631 0.932-2.68 0.932-0.699 0-2.563-0.466-3.262-0.466-1.398-0.232-2.447-0.466-3.728-0.932-0.583-0.118-1.398 0.348-1.864 0-1.283-0.932-0.932-2.447-1.863-3.728-0.351-0.467-1.283-0.118-1.864-0.467-0.816 1.399-1.864 2.098-1.864 3.729 0 1.047 1.165 1.28 1.864 1.863 1.863 1.63 3.376 2.679 5.124 4.659z" fill="#fff"/>
 <path d="m1248.5 1418.8v5.707c0.814 0.232 1.397 0.932 2.329 0.932 1.632 0 2.446-1.397 3.728-2.33 2.448-1.864 2.098-4.775 2.33-7.921-3.496 0.583-8.387 0.117-8.387 3.612z" fill="#fff"/>
 <polygon points="1256.9 1415.1" fill="#fff"/>
 <path d="m789.52 1372.7c1.745 2.563 5.125 1.864 8.387 1.864 4.777 0 7.339-1.747 12.115-2.33 6.989-0.815 12.348-1.864 16.309-7.455-4.659-1.864-7.337-3.262-11.649-5.592-1.397-0.699-2.678-0.815-3.728-1.864-2.212-2.212-5.592-4.893-8.388-6.522-5.708-0.467-7.572-4.778-13.046-6.524-1.982 3.495-2.33 6.173-2.33 10.251 0 2.68-0.118 4.428 0.466 6.99 0.348 1.515 1.513 2.213 1.864 3.728 0.699 2.795-1.632 5.123 0 7.454z" fill="#fff"/>
 <path d="m803.03 1308.4c-2.796-0.699-4.542 0.35-7.456 0-3.144-0.349-6.057-1.864-8.853-3.262-0.698 0-1.048-0.466-1.748-0.466-2.33 0-3.495 0.932-5.707 1.397-5.824 1.399-9.086 3.262-14.91 4.659-4.66 1.165-7.108 3.495-10.252 6.99-2.563 2.796-7.455 2.68-7.455 6.524 0 1.864 1.864 2.214 2.796 3.728 4.193 6.175 8.852 9.785 16.309 9.785 4.309 0 6.639-1.513 10.717-2.795 5.707-1.864 9.435-1.98 15.377-3.263 4.193-0.932 6.757-1.863 10.251-4.193 1.515-0.933 2.564-1.863 3.729-3.262 0.583-0.699 1.631-0.582 1.863-1.397 0.817-2.679 0.467-4.542 0.467-7.456-2e-3 -3.377-1.866-6.173-5.128-6.989z" fill="#fff"/>
 <path d="m844.04 1341.5c2.562-3.495 4.078-5.825 6.058-9.786 1.282-2.678 3.262-3.961 3.262-6.989 0-2.678-3.029-3.144-4.66-5.126-1.513-1.863-1.631-3.61-1.863-6.057-0.349-3.611-1.281-7.338-2.33-10.718-4.777 0.351-8.738 0.466-11.649 4.194-0.932 1.164-0.816 2.447-1.397 3.726-2.68 5.126-4.194 8.971-4.194 14.912 0 4.543 5.242 5.243 8.853 7.921 3.375 2.448 4.89 4.894 7.92 7.923z" fill="#fff"/>
 <path d="m878.98 1339.2c-1.631 0-2.212-1.514-3.728-1.864-2.098-0.581-3.495 0.117-5.592-0.466-1.749-0.466-2.214-2.33-3.262-3.728-5.244 7.107-10.718 11.416-10.718 20.387 0 2.095 0.467 3.144 0.467 5.24 3.144 0 4.775 0.583 7.921 0.932 5.125 0.583 8.038-0.232 13.047 0.932 4.311 1.05 6.757 2.33 11.184 2.33 4.777 0 7.106-2.212 11.182-4.659 5.243-3.262 8.621-4.427 13.979-7.455-1.98-2.797-4.31-3.378-6.523-6.059-1.864-2.212-2.446-3.728-4.194-6.058 1.049-0.581 1.749-1.397 3.029-1.397 2.68 0 4.543 0 6.756 1.397 2.098 1.399 2.796 3.38 5.126 4.194 3.728 1.397 8.039 0.118 9.785 3.728 1.282 2.68 1.165 4.66 2.33 7.455 1.748 4.311 2.913 6.875 4.659 11.184 2.33-1.281 3.845-2.796 6.523-2.796 4.777 0 7.223 1.864 12 1.864 1.514 0 2.33-0.234 3.843-0.467-1.513-3.728-3.262-5.591-4.659-9.319-2.446-6.406-3.262-10.95-8.388-15.376-2.562-2.212-4.542-3.377-7.455-5.126-2.678-1.631-4.427-2.796-6.523-5.126-0.466-0.58-0.349-1.28-0.933-1.863-3.028-3.029-5.358-4.427-8.387-7.456-2.678-2.678-4.193-4.426-6.523-7.455-0.466-0.581-0.466-1.281-0.933-1.864-1.164-1.397-2.329-1.63-3.726-2.795-4.428-3.844-6.524-6.757-11.184-10.252-2.796-2.097-4.893-2.911-7.455-5.125-5.475-4.776-9.553-7.922-16.775-7.922-6.523 0-10.251-0.932-16.774-1.397v20.62c0 3.728 1.631 5.708 2.795 9.202 1.398 4.311 1.864 7.688 5.126 10.718 3.145 2.913 5.941 3.379 9.786 5.125 2.096 0.932 3.494 1.631 5.591 2.33 1.283 0.35 3.262 0.466 3.262 1.864 0 1.631-1.047 2.447-1.863 3.728-0.699 1.164-1.281 2.795-2.796 2.795z" fill="#fff"/>
 <path d="m858.94 1531.6c1.165 1.05 1.982 1.864 2.796 3.263 1.631 2.68 1.864 4.776 3.262 7.455 3.379 6.058 7.922 7.921 13.513 12.115 0.817-0.815 1.864-1.165 1.864-2.33 0-1.864-1.98-2.563-3.262-3.728-1.281-1.165-2.212-1.979-3.262-3.262-2.097-2.446-2.678-4.66-4.193-7.456-2.678-5.125-7.456-7.222-7.456-13.047 0-1.863 1.749-2.33 2.796-3.728 1.515-2.097 2.914-3.377 4.193-5.592 1.864-3.144 3.379-5.008 6.059-7.455 5.009-4.66 7.921-8.503 14.91-10.251l47.062 27.025c-0.116 2.214 0 3.495 0 5.708 0 2.913 1.398 4.428 1.398 7.338 0 5.592-3.961 8.154-7.922 12.115-2.445 2.448-3.262 4.778-6.058 6.989-2.446 1.982-5.008 2.214-7.455 4.194-3.262 2.563-5.475 5.592-9.785 5.592-5.126 0-7.105-3.961-12.115-5.126-4.309-1.047-6.872-0.815-11.183-1.864 0.698 4.545 3.844 6.875 7.921 8.854 0.816 0.35 1.049 1.398 1.981 1.398h13.746c4.193 0 6.872-0.699 10.367-2.796 1.515-0.933 2.214-2.33 3.728-3.262 4.545-2.796 7.223-4.776 10.718-8.854 3.845-4.427 7.223-6.989 8.853-12.581 0.932-3.377 0.583-5.707 0.932-9.319 0.466-3.728 0.466-6.173 2.329-9.319 1.283-2.212 3.729-1.98 6.059-2.796 3.728-1.281 5.824-1.979 9.318-3.728 3.029-1.514 4.544-3.145 6.99-5.592 4.193-4.193 7.921-7.105 7.921-13.047 0-1.864-0.932-2.796-0.932-4.659 0-7.69 1.864-12.115 1.864-19.804 0-2.68-0.233-4.427-1.398-6.757-0.815-1.631-1.98-2.097-2.796-3.728l-2.796-5.592c-2.212-4.544-3.262-10.251-8.388-10.251-4.426 0-6.871 1.747-11.183 2.796-5.707 1.399-9.319 1.399-14.911 3.262-2.212 0.698-3.61 1.513-5.592 2.796-2.211 1.397-2.329 3.843-4.659 5.125-1.165 0.581-2.446 0.699-3.728 0.933-4.193 1.047-6.872 1.746-11.184 1.397-3.61-0.234-5.707-1.05-9.318-1.397-1.398-0.118-2.446 0.232-3.729 0-2.33-0.467-3.144-2.68-5.591-2.796-0.815 0-1.165 0.814-1.864 0.932-2.33 0.466-3.843 1.397-6.058 2.33-4.427 1.863-6.99 2.563-11.184 4.659-1.631 0.815-1.979 2.212-3.728 2.796-4.193 1.514-7.803 2.446-9.785 6.523 4.427 1.749 7.34 2.563 11.183 5.592 1.864 1.398 1.398 3.845 2.33 6.058 1.283 3.028 3.029 4.544 4.66 7.455v-7.455c0.584-0.581 1.049-1.165 1.397-1.864 1.749 3.495 3.379 4.777 6.058 7.455l0.467 1.864c-4.077 0.583-6.173 2.68-8.853 5.592-2.796 3.028-4.894 5.126-6.99 8.853-1.164 2.097-1.863 3.728-3.262 5.592-1.047 1.397-2.329 1.631-3.728 2.796-3.144 2.679-5.592 5.125-5.592 9.318 3e-3 1.753 2.101 2.219 3.265 3.266z" fill="#fff"/>
 <path d="m1379 1350.4c2.447 0 3.146-2.33 5.125-3.728 2.33-1.631 5.126-2.68 5.126-5.592 0-2.097-2.097-3.262-4.193-3.262-1.048 0-1.281 1.048-1.865 1.864-2.445 3.377-4.075 5.358-6.058 9.319 0.818 0.234 0.934 1.399 1.865 1.399z" fill="#fff"/>
 <path d="m652.99 1600.1c6.523-5.008 11.532-6.173 19.571-7.455 1.397-0.115 2.329-0.932 3.845-0.932h9.085c0.815 0 1.281-0.815 1.98-0.933 1.283-0.232 2.448-0.116 3.729-0.466 0.816-0.233 0.698-1.399 1.397-1.864-1.281-2.563-1.864-4.541-1.864-7.455-2.912-0.466-5.474 0.118-7.455-1.865-1.047-1.047-0.932-2.329-1.397-3.728 2.563-1.281 4.543-1.513 7.455-1.863 0.232-1.165 0.932-1.631 0.932-2.796 0-0.932-1.047-1.047-1.397-1.864-1.281-2.563-4.077-2.796-5.592-5.125-1.281-1.98-1.047-4.077-2.796-5.592-1.746-1.514-3.611-1.281-5.592-2.33-2.678-1.397-3.961-3.262-6.989-3.262-1.981 0-3.146 1.283-4.193 2.796l2.33 10.251c-0.933 6.175-6.757 8.154-12.582 9.785-3.612 1.049-5.591 2.68-9.319 3.262-2.796 0.466-4.544 0.118-7.455 0.466v3.379c0 2.563 1.98 3.495 2.796 5.94 2.563 7.806 1.863 12.466 1.863 20.503 5.125-2.561 7.105-5.357 11.648-8.852z" fill="#fff"/>
 <path d="m147.88 822.9c-1.746 4.891-1.98 8.154-3.727 13.047-3.029 8.27-6.872 12.347-10.252 20.502-1.631 4.077-1.513 6.872-2.33 11.183-0.465 2.563-1.863 3.844-1.863 6.523 0 1.864 1.398 2.796 1.398 4.66 0 1.631-1.632 2.446-2.33 3.727-1.281 2.097-2.796 4.077-4.194 6.058l-33.549 92.727c-4.427 1.047-6.407 4.426-7.456 8.852l1.398 5.592v9.435c0 3.378 2.68 5.592 4.659 8.272l-33.55 22.366 1.399 2.33 34.947-21.9 25.628 41.471c1.864 1.397 2.448 3.144 4.194 4.659 2.329 2.097 4.659 2.212 7.455 3.729 2.329 1.28 3.146 3.376 5.592 4.193 1.981 0.698 3.494 1.397 5.591 1.863 4.311-0.117 6.757-0.466 11.068-0.466 5.825 0 9.319 0.932 15.027 1.865 1.397 0.115 2.329 0.931 3.845 0.931h9.552c3.029 0 4.659-0.931 7.571-1.397 7.922-1.283 12.466-1.865 20.503-1.865 11.649 0 18.173 1.397 29.821 1.397 4.777 0 7.341-0.35 12.115-0.466 4.427-0.117 8.272 0.349 11.184-2.796 1.515-1.631 1.631-3.845 2.33-6.057l-76.885-151.44-3.56-35.641 21.434-18.639 16.142 45.892 32.151-34.481 13.047 13.978-30.287 33.55 18.172 16.774 35.414-32.151c3.494-0.233 5.358-0.35 8.852 0 0.118 1.864 0.467 2.796 0.467 4.66 0 1.165-1.048 2.212-1.398 3.262l-40.539 45.664 8.854 9.319 9.785-6.058 13.047 15.843-8.387 8.388 34.947 41.936 18.638-14.445 12.115 13.98 41.005-35.879-23.298-25.162-1.864-32.151 19.571-3.728 2.329 21.9 26.56 30.754 16.774-4.66-4.193-57.313 12.58-4.193 6.99 53.586c5.126-0.817 7.921-1.397 13.047-1.397 8.854 0 13.746-2.098 22.366-4.194 4.311-1.049 6.873-1.049 11.184-1.864 1.282-0.232 2.796-0.117 3.726-0.932 1.283-1.164 0.933-2.795 0.933-4.659 0-6.175-1.398-9.669-1.398-15.843 0-3.728 0.466-5.942 1.864-9.319 0.584-1.399 0.584-2.563 1.398-3.729 1.398-1.981 3.146-2.795 5.125-4.193 1.864 2.563 4.194 4.193 4.194 7.456 0 0.932-1.514 0.698-1.864 1.397-0.814 1.399-1.864 2.097-1.864 3.728 0 0.815 0.817 1.165 0.932 1.864 0.699 3.61 1.283 5.94 2.797 9.319 1.282 2.796 3.262 4.193 3.262 7.338v9.436h15.377v-12.931c0-5.474-4.542-7.456-8.853-10.832-1.399-1.05-1.747-2.33-2.796-3.729-1.398-1.863-2.098-3.612-3.262-5.591-0.349-0.699-1.514-0.583-1.864-1.398-1.281-2.68-0.931-4.893-2.33-7.455 10.835 1.746 14.097 9.667 23.765 14.444 4.544 2.213 7.921 1.746 13.047 2.33 0 5.474 0.699 8.504 1.397 13.979h18.639c3.38-3.379 3.961-6.524 5.126-11.183 1.398-5.708 2.796-8.97 3.262-14.911 6.641-1.05 10.018-4.427 14.445-9.318 2.562 3.96 2.795 7.803 6.523 10.717l-0.466 71.292c-3.145 2.098-5.593 2.33-9.319 3.262-2.213 0.466-3.263 1.864-5.592 1.864-0.815 0-1.165-0.816-1.864-0.931-2.446-0.351-3.961-0.933-6.523-0.933-1.281 0-1.746 1.165-2.796 1.864-2.911 1.98-4.427 3.495-7.455 5.126-3.377 1.745-7.455 3.028-7.455 6.99 0 3.377 2.329 5.125 4.659 7.455 1.282 1.281 2.33 2.212 3.728 3.262-0.698 1.397-0.932 3.145-2.33 3.728-1.397 0.583-2.796 0.349-3.727 1.398-0.932 1.047-0.814 2.445-1.398 3.728-0.349 0.815-1.281 0.699-1.864 1.397-1.863-2.563-3.377-4.426-6.523-5.125l-1.397 1.864 1.864 8.387c-0.933 2.912-2.564 5.474-5.593 6.058-3.494 0.699-6.172-1.282-9.319 0.466-2.329 1.281-3.261 3.029-5.125 4.659-1.98 1.748-3.961 2.563-5.592 4.66s-2.329 3.728-4.193 5.592c-3.611 3.61-7.922 5.591-7.922 10.717 0 3.843 3.263 5.474 3.263 9.319 0 4.077-4.077 5.242-7.456 7.456-1.631 1.047-2.563 2.795-4.659 2.795-2.212 0-2.446-3.262-4.66-3.262-2.678 0-3.611 2.678-5.592 4.194-3.262 2.563-5.824 3.494-9.319 5.592-4.193 2.563-6.173 6.523-11.182 6.523-2.446 0-2.679-2.914-4.66-4.194-1.979-1.282-3.728-1.863-5.591-3.262-2.098-1.515-2.912-3.379-4.194-5.592-0.466-0.932-1.397-1.63-1.397-2.795 0-3.147 2.215-4.312 3.727-6.99 3.612-6.29 6.989-9.086 12.581-13.978 4.777-4.078 7.688-7.223 10.251-13.047 1.165-2.68 1.049-4.777 2.33-7.455 1.397-3.147 3.727-3.961 6.523-6.059 2.913-2.097 4.311-4.078 6.989-6.523 1.864-1.631 3.727-2.329 5.592-4.193 3.845-3.845 5.824-6.29 8.854-10.717 1.864-2.796 4.659-4.079 4.659-7.573 0-1.398-0.348-2.212-0.466-3.611-8.036 1.98-12.697 3.728-20.967 2.796 0 2.678 0.816 5.008-0.933 6.989-1.631 1.865-3.961 1.399-6.523 1.399-4.892 0-7.688 0-12.581-0.466-2.212-0.233-3.377-0.933-5.592-0.933-3.144 0-4.775 1.281-7.455 2.796-3.495 1.979-5.592 3.495-9.319 5.126-6.406 2.911-10.717 4.309-17.24 6.989-5.008 6.757-9.785 9.552-17.241 13.513-2.796 1.513-4.426 3.145-6.523 5.592-3.144 3.727-6.756 4.542-11.182 6.523-8.155 3.728-11.649 8.154-19.571 12.581-4.659 2.564-6.872 5.008-10.717 8.854-2.563 2.563-4.66 3.61-7.455 6.058-2.912 2.446-4.31 4.659-7.455 6.989-5.593 4.193-9.902 5.708-14.912 10.717-5.474 5.474-7.921 9.435-13.978 13.979-5.824 4.309-9.552 6.872-14.444 12.115-0.466 0.581-1.398 0.698-1.864 1.397-1.513 1.865-2.097 3.611-3.262 5.592-3.028 5.01-6.058 8.039-6.058 13.978 0 3.262 0.932 5.244 1.398 8.388 0.816 5.01 0.816 8.272 2.329 13.047 1.165 3.612 2.33 5.592 3.262 9.319 1.631 6.523 1.631 10.602 4.194 16.774 1.63 3.961 3.96 5.592 6.058 9.319 6.29 11.184 9.902 17.358 16.309 28.424 4.311 7.455 7.339 11.534 12.115 18.639 0.932 1.515 2.329 2.214 3.261 3.728 2.33 3.726 4.194 5.591 6.523 9.318 2.68 4.427 3.845 7.573 7.456 11.184 4.427 4.427 7.688 6.29 12.115 10.717 5.942 5.942 10.135 9.437 18.173 12.115 3.028 0.932 5.125 1.864 8.387 1.864 4.193 0 6.408-2.212 10.252-3.727 4.776-1.98 7.921-2.564 13.047-3.729 3.028-0.699 5.125-0.581 7.921-1.863 5.358-2.446 7.688-5.242 13.047-7.922l-20.502-68.497 23.298-14.91 26.559 66.633 23.299-18.173-21.434-67.099 22.832-11.649 28.891 63.837c3.96-2.212 5.591-4.426 9.319-6.989 8.62-5.824 13.513-9.435 22.365-14.91 2.448-1.514 4.194-2.213 6.523-3.729 3.845-2.563 5.825-4.775 9.786-6.989 6.873-3.96 10.601-7.105 17.24-11.649 2.097-1.398 3.38-2.678 5.592-3.728 8.039-3.961 14.795-1.979 20.036-9.319l-52.187-33.549 10.251-13.979c2.68 2.33 4.193 3.843 6.523 6.523 3.612-2.68 5.591-4.659 8.854-7.921l0.816-1.864 0.116 13.047 52.654 29.822c1.981 1.748 3.379 3.262 6.057 3.262 2.796 0 3.845-2.679 5.591-4.66 2.33-2.563 3.961-3.96 6.989-5.591 4.545-2.446 7.108-4.66 10.252-8.854-4.893-4.894-8.502-6.989-14.911-9.319-6.523-2.446-7.455-8.154-13.513-11.649 6.757-5.009 9.319-9.67 16.309-14.444 3.379-2.214 5.243-4.66 9.319-4.66 4.543 0 6.874 1.863 11.183 3.262 5.01 1.631 8.621 1.281 13.513 3.262 8.504 3.495 12.114 10.718 21.433 10.718 6.291 0 10.951 0.932 15.843-2.796 2.914-2.214 4.079-4.427 6.99-6.523 4.193-3.146 7.222-5.01 10.717-8.854 2.914-3.146 5.126-5.825 5.126-10.251 0-2.68-1.047-4.079-1.864-6.524-1.631-4.544-0.932-8.505-4.659-11.649-2.33-1.982-4.66-1.515-7.456-2.796-2.911-1.283-4.426-3.146-7.455-4.193-3.377-1.165-5.824 0.115-9.319-0.467-2.212-0.35-3.377-1.398-5.708-1.398h-11.882c-3.379 0-4.777-2.33-7.573-4.193-2.911-1.864-4.892-2.914-7.455-5.126-2.912-2.448-3.843-4.777-6.523-7.455-1.864-1.864-4.427-1.864-5.592-4.193-1.281-2.564-2.097-4.428-2.33-7.456-0.116-2.214 0.699-3.379 0.466-5.592-0.698-5.824-2.562-12.581-8.387-12.581-3.844 0-5.592 3.262-9.435 3.262h-7.339c-0.117-1.282-0.467-1.863-0.467-3.146 0-1.863 0.933-2.912 0.933-4.775 0-4.311-1.398-6.524-2.33-10.717-0.116-0.699-0.933-1.165-0.933-1.982v-5.474c3.495 0.581 5.126 2.563 7.922 4.66 9.323 6.867 6.761 3.807-0.466-4.194-3.029-3.262-3.961-6.174-7.922-8.388-2.212-1.164-3.843-1.63-6.057-2.795-5.008-2.563-8.271-4.66-13.979-4.66-6.989 0-10.832 1.398-17.821 1.398h-9.087c-2.33 0-3.961 0.698-6.175 1.398v-72.224c-0.466-3.146-1.397-4.659-2.795-7.455 0.699 0 1.049-0.466 1.748-0.466 2.911 0 4.66 0.698 7.572 0.932 2.913 0.232 4.659-0.699 7.455 0 2.215 0.466 3.845 1.165 6.058 1.864l45.665 31.684 10.25-66.633c2.796-2.096 4.079-4.078 6.525-6.523 1.863-1.863 3.378-2.796 4.659-5.125 3.262-5.942 4.659-9.903 9.319-14.911 0.466-0.583 0.35-1.283 0.931-1.863 0.467-0.466 1.283-0.118 1.864-0.466l13.047 0.116c-1.165 5.708-3.377 8.619-6.523 13.397-1.864 2.912-2.678 5.007-5.126 7.455-1.863 1.864-3.728 2.562-5.125 4.66-2.098 3.144-2.564 5.591-3.263 9.319-0.115 0.698-0.814 1.164-0.931 1.863-0.699 3.495-0.349 5.825-0.933 9.319-0.116 1.281-0.931 2.212-0.931 3.611v17.358l-4.194 34.015c2.796-2.448 5.01-4.66 8.853-4.66 5.942 0 10.252 1.397 15.843 3.262l75.486 17.707 17.24 6.057 35.414-4.194c-0.581-8.039-2.33-12.813-6.523-19.57-3.262-5.358-6.291-8.039-8.388-13.979-0.932-2.68-0.232-4.66-0.932-7.456-0.933-3.961-2.446-6.408-5.126-9.319-0.466-0.583-1.398-0.35-1.863-0.931-3.844-4.078-3.961-7.921-6.523-13.047 6.64 3.843 10.251 6.173 16.774 10.251 1.749 1.047 2.215 2.33 3.727 3.727 3.845 3.495 6.29 6.058 8.854 10.717 1.398 2.679 1.515 4.66 2.796 7.456 1.282 2.911 3.028 4.542 4.193 7.456 1.749 4.309 1.515 7.687 4.66 11.182 2.096 2.33 4.776 2.563 7.455 4.193 2.562 1.513 3.494 3.495 5.592 5.592 4.311 4.309 6.408 7.688 9.319 13.047 1.863 3.495 5.125 5.242 5.125 9.319 0 1.513-0.814 2.33-1.398 3.727-2.679 6.639-5.707 9.785-7.456 16.775l54.051 35.878c-0.814 5.358-2.796 8.037-4.659 13.047-0.466 1.397-0.815 2.445-1.397 3.727-0.233 0.582 0 1.513-0.466 1.864-1.048 0.814-2.33 0.466-3.729 0.466-3.728 0-5.591-2.796-9.319-2.796-2.445 0-3.144 2.796-5.591 2.796-2.678 0-3.377-2.914-5.592-4.193-1.98-1.165-3.728-1.631-4.66-3.729-0.814-1.981 0.233-3.845-0.932-5.591-1.398-2.098-3.843-2.33-6.523-2.33-2.678 0-3.961 1.863-6.058 3.262-2.678 1.864-5.008 2.796-8.388 2.796-2.678 0-3.377-2.796-5.592-4.194-1.979-1.282-4.193-1.515-5.125-3.728-0.581-1.282 0.117-2.329 0-3.728-0.233-1.864-1.631-2.447-2.796-3.727-3.028-3.262-4.659-5.359-8.387-7.922-9.552-6.524-16.423-10.251-27.957-10.251-3.029 0-5.242 1.047-7.922 2.33l-23.763 38.675 136.06 86.669 45.665-76.418 63.371 33.084c3.029 2.678 4.545 5.008 6.058 8.853 0.817 2.098 1.165 3.611 2.33 5.593 0.466 0.814 0.816 1.863 1.863 1.863 2.68 0 3.03-3.028 5.126-4.659 3.495-2.797 6.641-3.728 11.182-3.728 3.147 0 4.66 1.398 7.456 2.795 5.476 2.679 8.039 5.592 12.581 9.785 3.028 2.796 4.777 4.776 7.455 7.922 4.545 5.358 6.176 9.436 11.184 14.444 2.447 2.448 3.378 4.778 5.592 7.456 1.748 2.097 3.146 4.659 6.057 4.659 2.68 0 4.079-1.397 6.523-2.33 11.184-4.659 14.33-16.774 26.561-16.774 1.863 0 2.796 1.398 4.66 1.398 3.26 0 4.891-2.33 7.455-4.194 1.631 3.38 1.631 5.942 3.262 9.319 1.631 3.379 3.612 6.524 7.455 6.524 3.495 0 5.126-2.679 8.386-3.729 1.399 2.563 3.147 3.845 6.059 4.194 3.845 0.35 6.408-1.165 9.785 0.465 0.816 0.351 0.583 1.516 1.397 1.864 2.563 1.398 4.544 0.816 7.456 0.932 2.913 0.118 4.543 0.467 7.455 0.467 6.757 0 11.3-1.398 17.707-3.263 4.659 6.524 10.483 8.272 13.979 15.378 2.33 4.659 4.544 6.874 7.455 11.183 1.398 2.097 1.982 3.845 3.728 5.592 5.708 5.708 9.784 8.388 16.774 12.115 2.097 1.048 3.612 1.397 5.592 2.796 2.796 1.981 4.426 4.659 7.923 4.659 3.494 0 5.125-2.563 8.387-3.728 4.427-1.631 6.99-2.446 11.184-4.66 6.756-3.61 11.184-4.775 17.24-9.319-3.845-5.125-6.64-7.803-10.717-12.581-4.194-4.891-5.708-9.201-11.183-12.581-5.359-3.262-6.875-7.455-11.649-11.648-3.146-2.796-4.659-5.359-6.06-9.319-0.466-1.398-1.399-2.213-1.399-3.729 0-1.513 0.933-3.261 1.516-4.659v1e-3h10.95c1.515 0 2.447 0.699 3.845 0.933 4.426 1.048 7.105 1.863 11.182 3.726 3.728 1.632 6.058 2.448 9.319 4.66 6.291 4.311 6.291 10.484 11.65 15.843 1.047 1.049 1.979 1.864 3.261 2.796 1.397 1.049 1.865 2.796 3.728 2.796 1.047 0 1.165-1.281 1.864-1.863 0.698-0.582 1.164-0.933 1.863-1.398-2.097-3.611-3.495-5.825-5.591-9.319-1.283-2.212-3.263-3.377-3.263-6.058 0-1.047 1.165-1.281 1.864-1.863 1.863-1.632 3.377-1.98 5.592-3.263l28.424 29.356c1.398-0.815 2.445-1.514 3.728-2.33-2.098-2.796-4.427-4.077-5.592-7.455-0.232-0.815-1.397-0.933-1.397-1.865 0-1.631 1.979-2.911 2.796-4.194l1.397-58.245c3.028 0.699 4.542 1.746 7.456 2.796 2.678 0.932 4.775 0.932 7.455 1.864 2.795 1.047 4.426 2.097 7.455 2.33v7.455c5.126 0.814 8.038 1.165 13.047 2.329 7.222 1.747 11.184 4.194 18.639 4.194 4.542 0 7.222-1.283 11.183-3.262 3.028-1.515 5.359-2.097 7.455-4.66 3.494-4.078 6.058-6.174 10.251-9.319 5.592-4.193 8.853-7.222 14.911-10.717 3.843-2.214 6.173-3.845 8.854-7.455 1.047-1.398 2.795-1.864 2.795-3.727 0-3.147-2.096-4.66-3.261-7.456-0.817-1.981-0.817-3.494-1.399-5.592-0.466-1.748-1.748-2.33-2.796-3.727-2.097-2.913-3.96-4.544-6.058-7.455-2.447-3.262-4.543-5.243-7.921-7.456-4.193-2.795-5.126-6.524-9.319-9.319-2.097-1.397-3.613-2.329-5.592-3.728 0-11.649-1.397-18.755-1.397-30.404 0-3.377 0.698-5.358 0.466-8.736-0.699-9.552-2.796-14.911-2.796-24.463 0-3.495 0.348-5.825 2.33-8.62 2.097-2.914 5.008-3.263 7.455-6.059 1.631-1.981 2.563-3.612 4.194-5.591 2.211-2.563 5.125-3.961 5.125-7.455 0-1.864-2.447-2.098-3.262-3.729-2.448-4.544-5.476-6.408-7.456-11.183l0.467-1.864c2.796 1.165 4.775 2.33 7.921 2.33 3.611 0 4.542-3.845 6.058-6.99 2.212-4.426 4.776-6.29 7.922-10.25l1.863-1.399c-1.049 2.678-1.049 4.543-1.397 7.455-0.583 5.008-2.33 7.456-5.126 11.649 2.796 1.165 4.542 2.212 7.455 3.262 2.098 0.699 4.194 0.116 5.593 1.864 0.348 0.466-0.233 1.28 0 1.863 0.466 1.398 0.814 2.33 1.397 3.728 1.164 2.912 2.329 4.776 4.193 7.456 1.399 2.097 2.796 3.144 4.194 5.126 0.933 1.28 1.281 2.678 2.33 3.727 2.912 2.913 6.29 2.913 9.319 5.593 2.33 2.096 2.564 4.426 3.262 7.455-1.165-0.118-1.748-0.466-2.913-0.466-2.446 0-3.961 0.932-6.406 0.932-2.215 0-3.379-1.399-5.592-1.399-1.164 0-1.63 0.933-2.795 0.933-1.631 0-2.098-2.33-3.729-2.33-2.447 0-3.379 1.864-5.591 2.796-3.961 1.631-6.523 2.678-10.834 2.678h-15.726c-0.117 0.699-1.397 0.699-1.397 1.515 0 1.864 1.863 2.446 2.33 4.194 2.329 8.154 5.358 12.463 5.591 20.968 0.115 5.008 0.815 7.922 2.33 12.581 1.398 4.427 1.746 7.223 4.193 11.182 1.281 2.213 3.029 3.263 4.66 5.126 2.445 2.678 3.377 5.126 5.591 7.922 2.796 3.494 5.593 4.659 8.854 7.921 3.843 3.843 7.222 5.126 10.718 9.319 3.262 3.843 5.358 6.291 9.785 8.854 1.28-3.961 3.61-5.708 5.592-9.319 2.911-5.358 5.824-8.039 10.717-11.649 2.796-2.097 4.427-3.845 7.922-4.193 1.398-0.118 2.445 0.348 3.727 0 4.077-1.397 3.961-6.058 7.456-8.387 3.728-2.563 6.872-2.098 11.182-3.263 5.359-1.515 6.757-5.591 11.184-8.853 3.377-2.448 5.358-4.427 9.319-6.058 2.678-1.05 4.659-0.234 7.455-0.933 1.514-0.35 2.33-1.282 3.728-1.863 2.796-1.283 4.66-1.631 7.456-2.796 6.173-2.562 9.552-4.66 15.377-7.922 2.329-1.282 3.262-2.913 5.592-4.193 5.94-3.262 9.667-5.125 15.376-8.854 8.621-5.708 14.095-8.039 23.764-11.649 4.776-1.747 6.757-4.544 11.649-6.056 2.678-0.817 4.659-0.933 7.455-1.399 0.699-0.117 1.165-0.931 1.98-0.931h11.415c2.914 0 5.126-1.165 8.04-1.398 5.474-0.817 8.388-2.563 13.513-4.194 2.912-0.932 5.008-0.932 7.922-1.865 0.814-0.232 1.047-1.282 1.863-1.397 4.776-1.165 7.572-2.214 12.115-3.728 8.27-2.914 13.746-1.981 22.366-3.727 10.484-2.097 16.424-3.379 27.025-5.126 2.796-0.466 4.66-1.282 7.456-1.864 2.212-0.466 3.843-0.35 6.058-0.932 5.592-1.631 8.736-1.981 14.444-3.262 9.087-2.097 14.212-3.961 23.299-6.058 4.193-0.932 6.757-1.164 10.717-2.795 3.495-1.399 5.708-2.215 9.319-3.263 4.775-1.515 7.455-2.913 12.115-4.659 7.804-2.914 12.581-3.845 20.502-6.524 2.33-0.699 3.728-1.982 6.057-2.796 11.533-3.961 19.338-5.476 31.22-8.388 2.212-0.816 3.377-2.097 5.592-2.796 2.911-0.932 4.893-0.466 7.922-1.398 7.105-2.097 11.182-3.612 18.172-6.058 2.446-0.816 3.728-1.981 6.058-3.262 3.029-1.631 5.474-1.398 8.854-2.33 4.775-1.282 7.338-2.68 12.115-4.193 2.563-0.816 4.077-1.515 6.523-2.33 4.309-1.515 7.105-2.097 11.648-2.796 5.475-0.932 8.503-2.329 14.095-2.329h28.656c4.427 0 6.875-0.933 11.301-0.933 1.397 0 2.445-0.35 3.727 0 1.513 0.466 2.097 2.33 3.728 2.33 3.03 0 4.542-1.864 7.455-2.33 5.126-0.816 8.27-0.466 13.514-0.931 5.824-0.584 9.086-2.329 14.91-2.329 1.864 0 2.446 1.63 3.728 2.795 3.611 3.262 6.058 6.173 6.058 11.184 0 2.562 0.698 4.309-0.467 6.523-0.35 0.698-1.397 0.348-1.863 0.932-1.749 2.212-2.448 3.843-3.728 6.523 3.145-0.466 4.543-1.981 7.456-2.796 1.281-0.35 2.446-0.118 3.727-0.466 8.62-2.447 13.396-6.058 22.482-6.058h9.552c4.078 0 6.174 2.33 9.902 3.727 4.427 1.632 6.757 3.728 11.184 5.126 4.309 1.397 6.989 2.212 11.182 3.727 7.223 2.678 10.95 6.058 18.639 6.058 5.94 0 9.785-1.282 14.911-4.193 2.212-1.283 3.377-2.68 5.592-3.727 1.979-0.933 3.61-1.283 5.592-2.33 2.444-1.283 3.376-3.146 5.591-4.66 5.126-3.494 7.688-6.056 13.048-8.852 2.678-1.398 4.541-2.33 7.455-3.263 9.785-3.261 16.191-2.096 26.559-2.795 3.843-0.233 6.058-0.466 9.901-0.466 9.552 0 15.96 0.466 25.513 0.466l0.93-21.9 33.084-0.933-0.466 21.9 17.706 1.864v29.821l4.194 0.467v-36.34c3.03-1.165 5.94-1.749 7.455-4.659 1.048-1.982 1.165-3.379 1.864-5.592-2.914 0.698-5.592 1.398-8.388 2.329l-1.846-45.533h-3.389l0.109 6.859-84.804-0.932-17.24 7.922c-5.71 4.193-9.553 7.921-16.775 7.921-2.214 0-3.379-0.932-5.592-0.932-4.427 0-6.874 1.863-11.3 1.863h-7.338c1.399-2.913 2.796-4.427 3.729-7.455 0.348-1.282 0.348-2.562 0.932-3.727 2.097-3.728 6.29-2.796 10.251-4.193 5.824-2.098 9.087-3.961 14.911-6.059 1.115-0.419 2.044-0.871 2.951-1.267h-2075.3c-0.102 0.267-0.203 0.526-0.305 0.8z" fill="#fff"/>
 <path d="m1361.7 1340.1c-1.632 2.214-2.563 4.193-5.126 5.125-1.982 0.699-3.613 0.467-5.592 1.399-0.699 0.35-0.466 1.282-0.932 1.864v7.455c0.815 0.233 1.397 0.932 2.33 0.932 1.746 0 2.096-2.097 3.261-3.262 1.864-1.863 3.495-2.562 5.592-4.193 1.283-0.932 2.33-1.865 3.262-3.262 1.165-1.746 0.233-3.377 0.466-5.592l-3.261-0.466z" fill="#fff"/>
 <path d="m1366.4 1366.2c-1.749 0.233-2.796 0.466-4.545 0.466-3.377 0-5.125-1.863-8.502-2.329 0 0.814-0.932 1.047-0.932 1.863 0 1.864 2.329 1.982 2.795 3.728 1.048 3.379 1.165 5.709 1.399 9.319 0.115 1.399 0.115 2.68 0.932 3.729 0.931 1.165 2.678 1.165 3.728 2.329 1.631 1.749 1.98 3.379 2.796 5.592 2.212 5.476 4.893 8.388 9.319 12.115 2.097 1.748 3.38 3.028 5.126 5.126 2.214 2.563 3.612 5.591 7.107 5.591 2.097 0 3.376-0.348 5.474-0.232v-2.911c0-3.38-2.796-4.777-2.796-8.154v-3.612h8.387l0.933-1.864c-2.33-1.746-4.077-2.678-5.592-5.126-3.029-4.893-2.563-10.251-7.922-12.581-2.097-0.814-3.728-0.699-5.591-1.864-0.699-0.466-0.699-1.397-1.399-1.863-3.961-3.031-7.804-5.243-10.717-9.322z" fill="#fff"/>
 <path d="m1039.7 1483.2c2.097 1.631 2.68 3.613 4.659 5.592 3.379 3.379 6.641 3.379 11.184 4.66 11.182 3.26 16.308 8.852 27.958 10.717 0.117-0.815 0.931-1.047 0.931-1.864 0-1.631-1.165-2.329-1.864-3.728-0.815-1.631-1.281-2.912-2.796-3.728-2.796-1.631-5.125-2.097-7.455-4.193-4.893-4.542-5.824-8.854-8.854-14.911-1.864-3.844-2.911-6.524-6.523-8.854-1.864-1.165-3.495-1.397-5.592-2.33-6.989-3.144-7.337-10.019-13.513-14.444l-1.864 2.329v9.903c0 2.33-1.748 3.262-2.329 5.474-0.466 1.749-0.466 2.796-0.466 4.66 0 1.165 0.698 1.748 0.932 2.796 0.582 2.214 0.348 3.845 1.863 5.591 0.933 1.165 2.448 1.398 3.729 2.33z" fill="#fff"/>
 <path d="m660.91 1439.8c-2.911-3.494-7.922-3.376-12.581-3.728-4.777 2.68-6.875 6.176-12.115 7.922-3.845 1.283-6.174 1.515-10.251 1.863-9.437 0.933-14.795 2.33-24.23 2.33-1.165 8.854-3.494 13.746-7.922 21.435-1.631 2.796-2.329 4.659-4.659 6.989-2.33-2.097-3.262-5.592-6.523-5.592-1.863 0-1.283 2.796-2.796 3.729-1.863 1.165-3.612 1.282-5.592 2.329-3.728 2.097-5.243 4.777-6.523 8.853l1.864 0.932h11.066c7.455 0 11.766-1.863 19.221-1.863 3.844 0 6.059-0.116 9.785 0.932 4.077 1.165 5.593 4.777 9.902 4.777 7.106 0 11.067-0.117 18.172-0.117 3.262 0 5.126 0.932 8.388 0.932 9.554 0 14.912-0.466 24.465-0.466 0.932 0 1.165 1.165 1.98 1.397 1.397 0.583 2.447 0.933 3.96 0.933 3.845 0 5.825-1.399 9.553-2.33 4.311-1.048 7.222 0 11.183-1.864 2.098-0.932 3.147-2.212 5.126-3.262 0.932 1.165 2.097 2.33 3.728 2.33 1.981 0 4.659 0.117 4.659-1.864 0-1.747-1.28-2.678-1.863-4.193-1.165-3.03-1.165-5.592-3.728-7.455-1.048-0.699-2.446-0.234-3.729-0.467-2.211-0.348-3.494-1.397-5.591-2.329-1.281-0.583-2.564-0.699-3.729-1.399-4.076-2.678-5.474-5.94-6.989-10.717 1.749 0.35 2.796 0.932 4.66 0.932 1.863 0 2.914-0.581 4.659-1.397-1.397-5.592-3.144-8.503-6.523-13.048-1.979 1.399-2.678 2.796-4.193 4.66-0.581 0.699-1.513 0.699-2.33 0.933-2.212 0.816-3.61 1.863-6.058 1.863-2.212 0-3.494-0.815-5.591-1.397-2.797-0.815-4.542-0.583-7.456-0.933-0.116-0.932-0.348-1.397-0.466-2.33l0.932-3.728c-0.467-2.212-0.467-3.843-1.865-5.592z" fill="#fff"/>
 <path d="m1290 1235.3c-1.165 0-1.398-1.165-2.33-1.864-1.281-0.932-1.98-1.863-3.262-2.796-1.281-0.932-2.678-1.165-3.728-2.33-1.047-1.164-1.165-2.329-1.865-3.726-1.047-1.98-2.446-3.378-4.659-3.729-2.796-0.581-4.66 0.699-7.456 0-1.513-0.348-2.33-1.165-3.728-1.864-1.513-0.698-2.912-0.932-4.193-1.863-0.699-0.466-0.699-1.397-1.399-1.863-1.281-0.815-2.445-0.933-3.728-1.864-0.581-0.349-0.348-1.514-0.932-1.864-3.029-1.865-5.707-1.397-9.319-1.397-2.912 0-4.66 0.932-7.571 0.932h-10.95c-3.147 0-4.893-0.932-7.573-2.329-3.262-1.748-3.843-5.475-7.456-6.524-4.893-1.513-8.736-0.814-13.047-3.728-4.659-3.144-7.921-4.193-13.513-5.592-1.281-0.232-2.796-0.115-3.728-0.932-1.864-1.746-0.581-4.193-1.864-6.524-0.698-1.397-1.631-2.097-2.796-3.262-3.494 5.358-8.502 6.989-14.91 6.989-7.105 0-10.833-2.562-17.707-4.193-4.193-1.047-6.989-0.699-11.184-1.397-7.222-1.165-11.298-2.796-18.639-2.796l-1.397 2.796c3.379 3.379 4.193 6.408 7.922 9.318 3.378 2.68 5.708 3.845 9.318 6.058 5.825 3.613 7.922 7.223 13.048 11.649 1.515 1.282 2.097 2.68 3.728 3.728 6.291 4.311 10.251 6.175 16.774 10.252 5.358 3.261 5.825 8.154 10.251 12.58 1.749 1.749 3.146 3.146 5.592 3.729 2.447 0.583 3.961-0.466 6.524-0.466 5.942 0 8.853 3.612 13.979 6.522 4.193 2.448 7.572 4.427 8.387 9.319-0.815 0-1.047 0.933-1.863 0.933-0.815 0-0.349-1.514-0.933-1.864l-0.466 1.864c1.749 2.329 2.68 4.078 5.126 5.591 1.981 1.165 3.96 1.632 5.592 3.263 3.262 3.261 2.447 8.853 6.989 9.785 2.097 0.465 3.495-0.933 5.592-0.466 2.447 0.583 3.494 2.447 5.591 3.728 3.263 1.981 4.893 4.311 6.058 7.921l-0.932 3.728c2.796 4.777 7.921 4.427 13.512 5.126 0.234 0.816 0.933 1.397 0.933 2.33 0 0.932-1.399 0.932-1.399 1.863 0 1.515 1.865 1.865 3.262 2.33 2.097 0.699 3.379 0.932 5.592 0.932 3.262 0 3.961-3.843 5.592-6.524 3.612-5.591 6.408-11.182 13.047-11.182 4.659 0 6.523 4.193 11.182 4.193 2.448 0 3.262-2.33 4.66-4.193 1.863-2.563 3.262-4.077 5.125-6.523-2.911-1.165-5.125-1.165-7.921-2.33 0.466-2.212 1.631-3.377 2.33-5.592 1.05-3.377 0.117-5.708 0.466-9.319 0.466-4.542 1.981-7.571 5.125-10.717 1.632 3.961 0.583 6.873 0.933 11.182 0.117 1.399 0.932 2.214 0.932 3.613v9.435l1.864 1.397c2.447-3.728 3.728-6.058 6.989-9.319 3.494-3.495 6.874-4.309 9.319-8.387 1.749-2.797 3.028-4.544 4.659-7.456 3.262-5.941 5.942-8.969 9.319-14.911 1.864-3.377 4.194-5.474 4.194-9.434v-3.147c-3.611 0-5.941-0.232-9.319-1.397-2.563-0.932-3.729-2.912-6.524-3.262l-15.843 5.126c-0.932-1.048-2.329-1.748-2.329-3.263 0-0.814 0.932-1.047 0.932-1.863 0-0.933-1.165-0.933-1.863-1.399-1.165-0.932-2.213-1.397-3.844-1.397-4.777 0-7.339-0.466-12.114-0.466-2.448 0-4.194 1.515-5.01 3.728 3.262 0.35 5.126-0.466 8.387 0 1.049 0.117 2.214-0.348 2.796 0.466 2.098 2.796 1.398 5.709 1.398 9.319 3e-3 2.56-1.162 5.589-3.725 5.589z" fill="#fff"/>
 <g fill="#fff">
  <path d="m823.16 577.2c0-110.91 87.654-201.34 197.46-205.81-22.526-7.874-46.738-12.157-71.951-12.157-120.38 0-217.97 97.589-217.97 217.97s97.589 217.97 217.97 217.97c25.213 0 49.425-4.283 71.951-12.157-109.81-4.47-197.46-94.904-197.46-205.81z"/>
  <polygon points="957.28 523.34 946.02 486.66 934.78 523.34 898.12 523.26 927.83 545.84 916.43 582.47 946.04 559.74 975.65 582.46 964.24 545.83 993.94 523.24"/>
  <polygon points="1226.3 523.24 1189.6 523.34 1178.4 486.66 1167.1 523.34 1130.5 523.26 1160.2 545.84 1148.8 582.47 1178.4 559.74 1208 582.46 1196.6 545.83"/>
  <polygon points="1080.5 459.61 1110.2 437.02 1073.6 437.11 1062.3 400.43 1051.1 437.11 1014.4 437.04 1044.1 459.61 1032.7 496.24 1062.3 473.52 1091.9 496.23"/>
  <polygon points="989.5 624.63 978.25 661.31 941.6 661.23 971.3 683.81 959.91 720.44 989.51 697.71 1019.1 720.43 1007.7 683.8 1037.4 661.21 1000.8 661.3"/>
  <polygon points="1146.1 661.3 1134.9 624.63 1123.6 661.31 1087 661.23 1116.7 683.81 1105.3 720.44 1134.9 697.71 1164.5 720.43 1153.1 683.8 1182.8 661.21"/>
 </g>
</svg>
